<svg width="1536" height="1536" viewBox="0 0 1536 1536" fill="none" xmlns="http://www.w3.org/2000/svg">
<g clip-path="url(#clip0_3980_148055)">
<path d="M244.5 1364H793.931V1364H244.5V1364ZM807.129 527L807.151 540.059L833.453 540.082L833.472 553.12L846.649 553.131L846.663 566.201L859.796 566.209L859.813 579.295L872.969 579.301L872.96 605.384L886.156 605.343L886.165 644.782L899.293 644.763L899.279 867.008L912.444 867.012L912.395 880.101L1189.43 880.085L1189.44 893.187L1189.43 906.25L1202.35 906.246L1202.36 971.672L1189.3 971.65C1189.3 980.049 1189.09 989.542 1189.42 997.857C1189.44 1001.14 1189.73 1021.96 1189.25 1024L1162.79 1024L1162.78 1037.1L1149.56 1037.04L1149.53 1024L1136.41 1024L1136.4 1010.91L1123.23 1010.91H978.236L912.469 1010.93L899.35 1010.89L886.122 1010.91L886.131 1050.17L886.153 1063.26L872.948 1063.31L859.812 1063.28C859.712 1067.63 859.707 1071.99 859.798 1076.34C859.798 1080.62 859.725 1085.16 859.834 1089.4L859.766 1115.52L846.643 1115.52L846.665 1154.83C842.487 1154.79 837.546 1154.62 833.428 1154.72C829.055 1154.82 824.687 1154.81 820.318 1154.72C820.3 1162.05 819.936 1172.87 820.413 1179.93L820.272 1180.76L820.346 1194C815.982 1194 811.399 1194.06 807.054 1193.97L807.145 1207.13L793.898 1207.03L793.953 1246.29L793.948 1259.39L741.292 1259.4L741.278 1246.29L741.328 1207.05C736.901 1207.03 732.473 1207.07 728.05 1207.17C728.036 1202.79 728.123 1198.31 728.164 1193.92L714.936 1193.96C714.926 1189.61 714.886 1185.26 714.809 1180.91C715.344 1175.81 714.94 1160.84 714.931 1154.75C710.676 1154.76 705.999 1154.88 701.78 1154.74L688.564 1154.79C688.604 1141.86 688.838 1128.38 688.592 1115.49L675.452 1115.52L675.405 1089.4L675.456 1076.37L675.399 1063.29L662.263 1063.31L649.076 1063.27L649.099 1050.16L649.109 1010.9L635.896 1010.89L622.801 1010.93L556.957 1010.9L411.992 1010.91L398.863 1010.91L398.828 1023.99L385.699 1024L385.678 1037.04L372.435 1037.08L372.437 1024L345.99 1024.02C345.514 1021.98 345.792 1001.16 345.812 997.849C346.103 989.307 345.949 980.243 345.939 971.66L332.906 971.688L332.916 906.259L345.805 906.235L345.798 893.196L345.796 880.094L622.829 880.096L622.81 867.017L635.942 867.016V644.77L649.053 644.756L649.071 605.339L662.249 605.348L662.26 579.287L675.409 579.292L675.446 566.21L688.596 566.204L688.594 553.13L701.767 553.118L701.775 540.084L728.05 540.051L728.077 527H807.129ZM807.086 1350.93L793.98 1350.95L793.981 1350.95L807.086 1350.93V1350.93ZM820.259 1337.85V1337.86L807.131 1337.85L807.132 1337.85L820.259 1337.85ZM1290.75 1364H1290.73V1180.87H1290.73V527H1290.75V1364Z" fill="white"/>
<path d="M1189.48 893.188L1202.39 893.217L1202.5 906.241L1215.49 906.248L1215.51 971.682L1202.4 971.688L1202.43 997.863L1189.47 997.859C1189.13 989.543 1189.35 980.05 1189.35 971.652L1202.41 971.673L1202.39 906.248L1189.48 906.252L1189.48 893.188Z" fill="white"/>
<path d="M1162.78 1037.12L1176.09 1037.12C1176.71 1043.44 1176.33 1056.21 1176.31 1063.15C1179.61 1063.15 1186.32 1062.96 1189.33 1063.37C1185.03 1063.72 1180.29 1063.57 1175.95 1063.53L1176 1102.48L1162.84 1102.48C1162.6 1089.56 1162.77 1076.2 1162.79 1063.24L1162.8 1050.24L1162.78 1037.12Z" fill="#A8996D"/>
<path d="M1162.78 1037.12L1176.09 1037.12C1175.45 1043.39 1175.85 1056.5 1175.86 1063.35C1172.34 1063.33 1166.11 1063.48 1162.79 1063.24L1162.8 1050.24L1162.78 1037.12Z" fill="white"/>
<path d="M1175.98 1063.52C1180.32 1063.55 1185.06 1063.7 1189.36 1063.36L1189.34 1102.46H1176.03L1175.98 1063.52Z" fill="white"/>
<path d="M345.772 893.188L345.779 906.227L332.891 906.25L332.881 971.679L345.914 971.652C345.923 980.234 346.077 989.299 345.786 997.84L332.852 997.854L332.838 971.686L319.766 971.67L319.785 906.252L332.78 906.233L332.809 893.192L345.772 893.188Z" fill="white"/>
<path d="M359.208 1037.09L372.426 1037.08L372.45 1050.24C372.436 1054.32 372.53 1059.21 372.377 1063.24C372.502 1076.32 372.51 1089.4 372.402 1102.47L359.238 1102.46L359.287 1063.48C354.892 1063.51 350.289 1063.64 345.922 1063.34C349.191 1062.93 355.462 1063.12 358.971 1063.12C358.959 1056.22 358.581 1043.34 359.208 1037.09Z" fill="#A8996D"/>
<path d="M359.203 1037.09L372.422 1037.08L372.446 1050.24C372.431 1054.32 372.526 1059.21 372.373 1063.24C368.75 1063.46 363.159 1063.32 359.39 1063.35C359.405 1056.1 359.748 1044.04 359.203 1037.09Z" fill="white"/>
<path d="M345.923 1063.32C350.29 1063.62 354.893 1063.5 359.288 1063.46L359.239 1102.45H345.891L345.923 1063.32Z" fill="white"/>
<path d="M635.896 1010.89L649.109 1010.9L649.099 1050.16L649.076 1063.27L662.263 1063.31L675.399 1063.29L675.456 1076.37L675.406 1089.4L675.452 1115.52C675.512 1124.23 675.522 1132.94 675.481 1141.65C672.084 1141.66 665.232 1141.5 662.103 1141.75L662.272 1141.98L662.323 1194.01L649.097 1193.99L635.952 1193.99L635.947 1141.74L596.451 1141.72L596.442 1154.75L517.38 1154.76L517.377 1167.84H570.096L570.119 1180.87L583.25 1180.87L583.262 1194L570.087 1194.01L570.099 1207.08L425.25 1207.08C425.148 1202.81 425.247 1198.3 425.272 1194.02L411.959 1194C412.041 1202.9 411.701 1211.37 411.587 1220.24L398.771 1220.25L385.679 1220.24L385.7 1207.09L254.027 1207.07L253.999 1193.99L244.5 1194V1180.88L253.995 1180.88L254.018 1167.83L306.66 1167.81L306.681 1154.76H345.927L345.909 1115.75C348.773 1115.29 356.041 1115.48 359.253 1115.48L359.246 1102.46L372.41 1102.47C372.518 1089.4 372.51 1076.32 372.385 1063.24C372.538 1059.21 372.444 1054.32 372.459 1050.24L372.434 1037.08L385.677 1037.04L385.699 1024L398.828 1023.99L398.864 1010.91L411.992 1010.91L556.957 1010.9L622.801 1010.93L635.896 1010.89Z" fill="white"/>
<path d="M649.061 1063.27L662.248 1063.31L675.384 1063.3L675.441 1076.37L675.391 1089.4L675.437 1115.53C675.498 1124.24 675.507 1132.95 675.466 1141.66C672.069 1141.67 665.218 1141.5 662.088 1141.76L649.11 1141.76L649.029 1128.67L556.851 1128.65L556.857 1141.69L464.625 1141.74L464.64 1089.45L530.586 1089.42L530.573 1076.34L543.685 1076.34C565.496 1076.36 587.894 1075.99 609.623 1076.31L622.757 1076.37L622.759 1063.3L649.061 1063.27Z" fill="#66563A"/>
<path d="M649.086 1063.27L662.272 1063.31L675.409 1063.3L675.466 1076.37L675.415 1089.4L635.975 1089.36L635.901 1076.39L622.781 1076.37L622.784 1063.3L649.086 1063.27Z" fill="#A8996D"/>
<path d="M649.086 1063.27L662.272 1063.31L662.265 1076.34C653.477 1076.24 644.688 1076.26 635.901 1076.39L622.781 1076.37L622.784 1063.3L649.086 1063.27Z" fill="#C6C18A"/>
<path d="M675.378 1063.27L675.435 1076.35L662.234 1076.32L662.242 1063.29L675.378 1063.27Z" fill="#463C2A"/>
<path d="M609.648 1076.34L622.782 1076.4L622.795 1089.46L543.703 1089.48L543.709 1076.37C565.52 1076.39 587.919 1076.02 609.648 1076.34Z" fill="#A8996D"/>
<path d="M662.244 1115.55C666.648 1115.51 671.052 1115.51 675.455 1115.53C675.516 1124.24 675.525 1132.95 675.484 1141.66C672.087 1141.67 665.236 1141.51 662.106 1141.76L649.128 1141.76L649.047 1128.68L662.332 1128.66C662.399 1124.41 662.281 1119.81 662.244 1115.55Z" fill="#463C2A"/>
<path d="M622.806 1076.35L635.926 1076.37L635.999 1089.34L635.984 1115.48L622.781 1115.52L622.819 1089.41L622.806 1076.35Z" fill="white"/>
<path d="M530.583 1076.35L543.694 1076.36L543.688 1089.46L543.727 1115.56L530.547 1115.56L530.596 1089.43L530.583 1076.35Z" fill="white"/>
<path d="M398.869 1010.92L411.997 1010.93C412.019 1014.91 411.912 1020.1 412.103 1024L425.117 1024.02L425.149 1037.09L425.111 1063.36L438.311 1063.34L438.376 1102.47L385.649 1102.45L372.416 1102.48C372.524 1089.41 372.516 1076.34 372.391 1063.26C372.544 1059.23 372.449 1054.34 372.464 1050.25L372.44 1037.09L385.683 1037.05L385.704 1024.02L398.833 1024L398.869 1010.92Z" fill="#A8996D"/>
<path d="M398.869 1010.92L411.997 1010.93C412.019 1014.91 411.912 1020.1 412.103 1024L412.019 1037.06L398.788 1037.03L398.894 1063.32L385.651 1063.22L385.649 1102.45L372.416 1102.48C372.524 1089.41 372.516 1076.34 372.391 1063.26C372.544 1059.23 372.449 1054.34 372.464 1050.25L372.44 1037.09L385.683 1037.05L385.704 1024.02L398.833 1024L398.869 1010.92Z" fill="#C6C18A"/>
<path d="M385.68 1037.05L385.68 1050.19L372.462 1050.25L372.438 1037.09L385.68 1037.05Z" fill="#A8996D"/>
<path d="M425.279 1167.88L504.246 1167.86L504.21 1180.92L556.887 1180.9L556.898 1194.03L425.283 1194.04L411.969 1194.01L411.971 1180.92L425.257 1180.89L425.279 1167.88Z" fill="#929292"/>
<path d="M359.296 1167.86L411.98 1167.83L411.946 1180.92L411.943 1194L398.76 1194.01L385.614 1194.02L319.887 1194.03L319.816 1180.88L319.812 1167.84L359.296 1167.86Z" fill="#575657"/>
<path d="M319.812 1167.83L359.296 1167.85L359.317 1180.87L319.816 1180.87L319.812 1167.83Z" fill="#929292"/>
<path d="M385.685 1180.94L398.832 1180.88C398.802 1185.08 398.669 1189.86 398.763 1194.02L385.617 1194.04L385.685 1180.94Z" fill="#929292"/>
<path d="M398.823 1115.55L451.428 1115.58C451.496 1128.43 451.179 1142.01 451.443 1154.71C433.9 1154.82 416.356 1154.81 398.812 1154.7L398.823 1115.55Z" fill="#211F20"/>
<path d="M530.619 1063.27L609.612 1063.29L609.628 1076.29C587.898 1075.97 565.5 1076.34 543.689 1076.32L530.578 1076.32L530.619 1063.27Z" fill="#C6C18A"/>
<path d="M372.438 1115.55L385.734 1115.56L398.82 1115.57L398.809 1154.72C394.521 1154.79 390.04 1154.73 385.736 1154.74L372.482 1154.75L372.438 1115.55Z" fill="#463C2A"/>
<path d="M385.699 1115.55L398.785 1115.56L398.775 1154.7C394.486 1154.78 390.005 1154.72 385.701 1154.72C385.59 1141.66 385.589 1128.6 385.699 1115.55Z" fill="#575657"/>
<path d="M517.42 1076.35L530.59 1076.33L530.603 1089.41L464.656 1089.44V1076.3C482.156 1076.37 499.969 1076.12 517.42 1076.35Z" fill="#A8996D"/>
<path d="M425.163 1037.08L438.403 1037.05C438.307 1045.8 438.283 1054.56 438.333 1063.32L451.554 1063.27L451.513 1102.46L438.39 1102.47L438.325 1063.34L425.125 1063.35L425.163 1037.08Z" fill="#66563A"/>
<path d="M267.117 1180.89L319.829 1180.88L319.901 1194.03H267.125L267.117 1180.89Z" fill="#929292"/>
<path d="M649.121 1141.75L662.099 1141.74L662.269 1141.97L662.319 1194.01L649.094 1193.98L649.121 1141.75Z" fill="#C6C18A"/>
<path d="M464.656 1063.4C480.616 1062.7 501.224 1063.25 517.416 1063.28L517.431 1076.35C499.98 1076.11 482.167 1076.37 464.667 1076.3L464.656 1063.4Z" fill="#C6C18A"/>
<path d="M345.922 1115.75C348.785 1115.3 356.054 1115.48 359.266 1115.48L372.438 1115.54L372.483 1154.74L359.186 1154.84L359.283 1115.96C355.057 1115.98 350.067 1116.15 345.922 1115.75Z" fill="#211F20"/>
<path d="M398.785 1194.02L411.969 1194.02C412.051 1202.92 411.711 1211.39 411.597 1220.25L398.781 1220.27L398.785 1194.02Z" fill="#929292"/>
<path d="M517.436 1024H635.942L635.926 1050.14L517.43 1050.17L517.436 1024Z" fill="#FEFEFE"/>
<path d="M451.469 1023.97C468.924 1024.15 486.716 1024 504.196 1024L504.243 1050.18L451.532 1050.13L451.469 1023.97Z" fill="#66563A"/>
<path d="M793.965 1259.41L807.106 1259.42L807.125 1272.5L820.28 1272.49L820.289 1285.55L820.266 1298.51L820.298 1311.72L820.289 1324.77L820.275 1337.87L807.129 1337.86L807.102 1350.94L793.978 1350.96L793.947 1364.01H741.294L741.266 1350.96L741.28 1338.16C739.187 1337.63 730.69 1337.86 728.106 1337.88L728.129 1324.82C724.914 1324.58 718.402 1324.76 714.956 1324.76L714.938 1311.69L714.974 1298.51L714.951 1285.55L714.983 1272.51L728.111 1272.48L728.138 1259.42L741.289 1259.41L793.965 1259.41Z" fill="#A8996D"/>
<path d="M714.938 1311.69L728.061 1311.72C728.07 1314.12 727.97 1322.79 728.438 1324.71L741.325 1324.73C741.325 1328.18 741.148 1334.72 741.389 1337.93C746.647 1337.68 753.586 1337.9 759.053 1337.9L794.01 1337.91L793.906 1324.72L807.066 1324.7L807.156 1311.71L820.298 1311.72L820.289 1324.77L820.275 1337.87L807.129 1337.86L807.102 1350.94L793.978 1350.96L793.947 1364.01H741.294L741.266 1350.96L741.28 1338.16C739.187 1337.63 730.69 1337.86 728.106 1337.88L728.129 1324.82C724.914 1324.59 718.402 1324.76 714.956 1324.76L714.938 1311.69Z" fill="#66563A"/>
<path d="M741.281 1350.95C758.632 1350.96 776.697 1351.22 793.993 1350.96L793.962 1364H741.309L741.281 1350.95Z" fill="white"/>
<path d="M807.078 1324.73L820.27 1324.77L820.256 1337.87L807.11 1337.86L807.078 1324.73Z" fill="white"/>
<path d="M793.973 1337.88L807.12 1337.84L807.092 1350.92L793.969 1350.94L793.973 1337.88Z" fill="white"/>
<path d="M793.979 1259.41L807.12 1259.42L807.139 1272.5L807.107 1285.58C798.347 1285.52 789.588 1285.5 780.828 1285.53C780.923 1281.28 780.796 1276.79 780.746 1272.52L754.499 1272.53L754.458 1285.54L728.161 1285.56L728.125 1272.48L728.152 1259.42L741.303 1259.41L793.979 1259.41Z" fill="#A8996D"/>
<path d="M793.96 1259.41L807.102 1259.42L807.12 1272.5L793.938 1272.51L793.96 1259.41Z" fill="white"/>
<path d="M741.303 1259.41L741.308 1272.51L728.125 1272.48L728.152 1259.42L741.303 1259.41Z" fill="white"/>
<path d="M807.11 1272.49L820.265 1272.48L820.274 1285.54L807.078 1285.57L807.11 1272.49Z" fill="white"/>
<path d="M715.001 1272.51L728.129 1272.48L728.165 1285.56L714.969 1285.55L715.001 1272.51Z" fill="white"/>
<path d="M714.969 1285.53L728.165 1285.54C728.179 1289.89 728.156 1294.23 728.106 1298.58C724.232 1298.56 718.733 1298.7 714.991 1298.5L714.969 1285.53Z" fill="#A8996D"/>
<path d="M807.078 1285.56L820.274 1285.53L820.252 1298.49L807.128 1298.6L807.078 1285.56Z" fill="#A8996D"/>
<path d="M688.575 1115.48C688.821 1128.37 688.587 1141.85 688.548 1154.78L701.764 1154.73C705.982 1154.87 710.659 1154.75 714.914 1154.74C714.923 1160.83 715.327 1175.81 714.792 1180.9C714.869 1185.25 714.91 1189.6 714.919 1193.95L728.147 1193.91C728.106 1198.31 728.02 1202.78 728.033 1207.17C732.456 1207.06 736.884 1207.02 741.311 1207.04L741.261 1246.28L741.275 1259.39L728.124 1259.4L728.097 1272.46L714.969 1272.49L714.937 1285.53L688.575 1285.54L688.618 1272.74C686.544 1272.21 677.997 1272.44 675.438 1272.46L675.393 1259.7L675.487 1259.45C675.298 1255.64 675.441 1250.21 675.439 1246.28L662.289 1246.26L662.244 1233.29L662.306 1194L662.255 1141.97L662.086 1141.74C665.216 1141.49 672.067 1141.65 675.464 1141.65C675.505 1132.93 675.496 1124.22 675.435 1115.51L688.575 1115.48Z" fill="#807A4B"/>
<path d="M662.246 1141.98C666.473 1142 671.269 1142.14 675.449 1141.98L675.372 1233.21L662.234 1233.3L662.297 1194.01L662.246 1141.98Z" fill="#A8996D"/>
<path d="M688.735 1272.52C697.466 1272.31 706.299 1272.68 714.972 1272.5L714.941 1285.54L688.578 1285.55L688.621 1272.75L688.735 1272.52Z" fill="#66563A"/>
<path d="M714.927 1154.76C714.936 1160.86 715.34 1175.83 714.804 1180.92C714.241 1178.47 714.495 1170.79 714.541 1167.92L701.703 1167.92C701.885 1163.58 701.798 1159.11 701.776 1154.75C705.994 1154.89 710.672 1154.78 714.927 1154.76Z" fill="#66563A"/>
<path d="M675.492 1259.47L688.617 1259.38C688.633 1262.89 688.487 1269.23 688.736 1272.52L688.623 1272.75C686.549 1272.23 678.002 1272.46 675.443 1272.48L675.398 1259.71L675.492 1259.47Z" fill="#66563A"/>
<path d="M688.641 1180.92L708.308 1180.88L708.253 1220.22L688.625 1220.26L688.641 1180.92Z" fill="white"/>
<path d="M649.101 1193.98L662.327 1194.01L662.264 1233.3L662.31 1246.27L675.46 1246.28C675.462 1250.22 675.318 1255.64 675.508 1259.46L675.414 1259.7C673.38 1259.17 652.617 1259.36 649.058 1259.36L635.94 1259.37L635.979 1272.48L635.962 1285.52L622.803 1285.54L622.786 1311.65L609.611 1311.67L596.391 1311.7L596.445 1272.44L596.426 1259.4L596.429 1220.32C598.432 1219.96 607.055 1220.1 609.582 1220.1C613.649 1220.1 618.792 1219.98 622.778 1220.14L622.771 1207.09L635.952 1207.11L649.053 1207.07L649.101 1193.98Z" fill="#66563A"/>
<path d="M649.095 1193.98L662.32 1194.01L662.258 1233.3L662.303 1246.27L675.453 1246.28C675.455 1250.22 675.312 1255.64 675.501 1259.46L675.407 1259.7C673.374 1259.17 652.611 1259.36 649.051 1259.36C649.153 1241.93 649.151 1224.5 649.047 1207.07L649.095 1193.98Z" fill="#463C2A"/>
<path d="M596.425 1220.33C599.866 1220.72 606.002 1220.66 609.577 1220.52L609.566 1233.3L609.58 1259.38L596.422 1259.41L596.425 1220.33Z" fill="white"/>
<path d="M609.586 1285.53L622.813 1285.56L622.796 1311.66L609.621 1311.68L609.586 1285.53Z" fill="white"/>
<path d="M609.586 1233.3L622.851 1233.29L622.736 1259.32L609.6 1259.38L609.586 1233.3Z" fill="#807A4B"/>
<path d="M596.422 1259.41L609.58 1259.38L609.624 1272.51L596.44 1272.45L596.422 1259.41Z" fill="#A8996D"/>
<path d="M622.781 1207.09L635.962 1207.11L635.942 1220.22L622.789 1220.14L622.781 1207.09Z" fill="#A8996D"/>
<path d="M622.812 1272.49L635.99 1272.48L635.973 1285.52L622.814 1285.54L622.812 1272.49Z" fill="white"/>
<path d="M609.597 1220.52C613.99 1220.48 618.382 1220.47 622.775 1220.5L622.851 1233.28L609.586 1233.29L609.597 1220.52Z" fill="#A8996D"/>
<path d="M583.257 1259.41L596.438 1259.41L596.457 1272.45L596.403 1311.71L609.623 1311.68L609.601 1324.75L583.242 1324.74L583.257 1259.41Z" fill="white"/>
<path d="M649.048 1259.38C652.607 1259.37 673.37 1259.19 675.404 1259.72L675.448 1272.48C678.007 1272.47 686.555 1272.24 688.628 1272.76L688.585 1285.56L662.269 1285.55L662.264 1272.5L635.969 1272.5L635.93 1259.38L649.048 1259.38Z" fill="white"/>
<path d="M688.584 1285.54L714.946 1285.53L714.969 1298.5L714.932 1311.67L714.951 1324.74L701.727 1324.73L701.723 1298.62L688.578 1298.6L688.584 1285.54Z" fill="white"/>
<path d="M411.961 1194.02L425.275 1194.04C425.25 1198.32 425.151 1202.83 425.253 1207.09L425.258 1220.24L412.134 1220.26C412.138 1222.81 412.243 1231.25 411.84 1233.21C411.522 1231.47 411.595 1222.67 411.59 1220.25C411.704 1211.39 412.044 1202.92 411.961 1194.02Z" fill="#575657"/>
<path d="M412.121 1207.12L425.269 1207.09L425.275 1220.24L412.151 1220.26C412.004 1216.19 412.126 1211.26 412.121 1207.12Z" fill="white"/>
<path d="M635.972 1193.99L649.117 1193.98L649.069 1207.07L635.968 1207.11L622.787 1207.09L622.781 1194L635.972 1193.99Z" fill="white"/>
<path d="M635.973 1193.99L649.118 1193.98L649.07 1207.07L635.969 1207.11L635.973 1193.99Z" fill="#A8996D"/>
<path d="M714.951 1324.76C718.398 1324.76 724.91 1324.58 728.125 1324.82L728.102 1337.87L714.938 1337.87L714.951 1324.76Z" fill="white"/>
<path d="M728.125 1337.88C730.709 1337.86 739.205 1337.63 741.298 1338.16L741.285 1350.96L728.139 1350.94L728.125 1337.88Z" fill="white"/>
<path d="M622.774 1207.09L622.782 1220.14C618.796 1219.97 613.653 1220.1 609.586 1220.1L609.593 1207.06L622.774 1207.09Z" fill="white"/>
<path d="M411.597 1220.21C411.602 1222.63 411.529 1231.43 411.848 1233.17L398.794 1233.18L398.781 1220.23L411.597 1220.21Z" fill="white"/>
<path d="M899.389 1010.89L912.508 1010.93L978.275 1010.91H1123.27L1136.43 1010.91L1136.45 1024L1149.57 1024L1149.6 1037.04L1162.82 1037.11L1162.84 1050.22L1162.83 1063.23C1162.81 1076.19 1162.64 1089.54 1162.88 1102.46L1176.04 1102.46C1176.03 1104.35 1176.13 1108.69 1175.95 1110.37C1176.1 1112.62 1175.79 1113.17 1176.9 1114.93C1180.38 1116.87 1183.95 1114.83 1189.36 1115.76L1189.34 1154.76H1228.6L1228.59 1167.82L1281.25 1167.85L1281.27 1180.87H1290.77V1193.98L1281.27 1194L1281.26 1207.08L1149.58 1207.09V1220.22L1136.47 1220.25L1123.64 1220.24C1123.63 1223.76 1123.8 1229.92 1123.4 1233.21C1123.1 1231.41 1123.15 1222.56 1123.09 1220.25L1110.19 1220.22C1109.78 1216.89 1109.99 1210.63 1110 1207.09L965.17 1207.08L965.165 1194H952.014L952.01 1180.89L965.147 1180.88L965.179 1167.84L1017.88 1167.83L1017.88 1154.76L952.01 1154.75L951.996 1141.74L899.316 1141.75L899.33 1193.99L886.179 1193.98C886.26 1176.68 886.238 1159.37 886.106 1142.06L886.111 1141.69C878.009 1141.47 868.419 1141.71 860.222 1141.74C859.314 1139.66 859.782 1119.11 859.805 1115.52L859.873 1089.4C859.764 1085.16 859.836 1080.62 859.836 1076.34C859.746 1071.99 859.75 1067.63 859.85 1063.28L872.987 1063.31L886.192 1063.26L886.17 1050.17L886.161 1010.91L899.389 1010.89Z" fill="white"/>
<path d="M886.192 1063.27L912.498 1063.3V1076.37L925.645 1076.33L969.552 1076.32C976.15 1076.32 985.177 1076.04 991.571 1076.36L1004.67 1076.37L1004.68 1089.48L1070.63 1089.44C1070.62 1106.8 1070.45 1124.39 1070.67 1141.73L978.384 1141.72L978.411 1128.64L886.224 1128.66C886.197 1132.67 886.297 1137.78 886.111 1141.7C878.009 1141.48 868.419 1141.72 860.222 1141.75C859.314 1139.67 859.782 1119.12 859.805 1115.53L859.873 1089.42C859.764 1085.17 859.836 1080.63 859.836 1076.36C859.746 1072 859.75 1067.64 859.85 1063.29L872.987 1063.32L886.192 1063.27Z" fill="#66563A"/>
<path d="M886.171 1063.27L912.477 1063.3V1076.37L899.363 1076.41L899.281 1089.38L859.851 1089.42C859.742 1085.17 859.815 1080.63 859.815 1076.36C859.724 1072 859.729 1067.64 859.829 1063.29L872.966 1063.32L886.171 1063.27Z" fill="#A8996D"/>
<path d="M886.182 1063.27L912.488 1063.3V1076.37L899.373 1076.41C890.578 1076.33 881.786 1076.3 872.99 1076.33L872.977 1063.32L886.182 1063.27Z" fill="#C6C18A"/>
<path d="M859.829 1063.27L872.966 1063.3L872.979 1076.31C868.815 1076.43 864.024 1076.34 859.815 1076.34C859.724 1071.98 859.729 1067.63 859.829 1063.27Z" fill="#463C2A"/>
<path d="M925.593 1076.34L969.5 1076.33C976.098 1076.32 985.126 1076.05 991.519 1076.36L991.488 1089.41L912.438 1089.44L912.447 1076.37L925.593 1076.34Z" fill="#A8996D"/>
<path d="M859.805 1115.52C864.227 1115.47 868.655 1115.44 873.078 1115.45L872.878 1128.73L886.224 1128.65C886.197 1132.66 886.297 1137.77 886.111 1141.69C878.009 1141.47 868.419 1141.71 860.222 1141.74C859.314 1139.66 859.782 1119.11 859.805 1115.52Z" fill="#463C2A"/>
<path d="M1004.66 1076.37L1004.67 1089.47L1004.69 1115.56L991.516 1115.55L991.529 1089.4L991.561 1076.35L1004.66 1076.37Z" fill="white"/>
<path d="M912.477 1076.35L912.468 1089.42V1115.5L899.318 1115.49L899.281 1089.37L899.363 1076.39L912.477 1076.35Z" fill="white"/>
<path d="M1123.28 1010.93L1136.45 1010.92L1136.46 1024.01L1149.58 1024.02L1149.61 1037.05L1162.83 1037.12L1162.85 1050.24L1162.84 1063.24C1162.82 1076.2 1162.65 1089.55 1162.89 1102.48L1149.64 1102.46L1096.9 1102.49L1096.98 1063.36L1110.24 1063.34C1110.19 1056.37 1110.15 1049.44 1110.24 1042.47C1110.3 1036.66 1110.83 1029.75 1110.29 1024.02L1123.22 1024C1123.35 1019.86 1123.26 1015.12 1123.28 1010.93Z" fill="#A8996D"/>
<path d="M1123.23 1010.93L1136.4 1010.92L1136.42 1024.01L1149.53 1024.02L1149.56 1037.05L1162.79 1037.12L1162.81 1050.24L1162.79 1063.24C1162.77 1076.2 1162.6 1089.55 1162.85 1102.48L1149.6 1102.46C1149.81 1089.66 1149.56 1076.13 1149.61 1063.25L1136.36 1063.35L1136.42 1037.06L1123.26 1037.04L1123.17 1024C1123.31 1019.86 1123.22 1015.12 1123.23 1010.93Z" fill="#C6C18A"/>
<path d="M1149.55 1037.05L1162.77 1037.11L1162.79 1050.23L1149.55 1050.18L1149.55 1037.05Z" fill="#A8996D"/>
<path d="M1136.47 1167.86L1215.43 1167.83L1215.37 1180.89L1268.1 1180.88V1194.01L1149.57 1193.96L1149.49 1180.9L1136.44 1180.84L1136.47 1167.86Z" fill="#929292"/>
<path d="M1096.77 1167.86L1110.06 1167.84L1110.05 1180.87L1123.38 1180.92L1123.28 1167.83L1136.51 1167.87L1136.47 1180.85L1149.52 1180.91L1149.6 1193.97C1145.9 1193.98 1139.97 1193.83 1136.45 1194.05L1136.45 1220.24L1123.62 1220.24C1123.61 1223.75 1123.78 1229.91 1123.38 1233.21C1123.08 1231.4 1123.13 1222.55 1123.07 1220.24L1110.17 1220.21C1109.76 1216.88 1109.97 1210.62 1109.98 1207.08C1110.24 1203.99 1110.08 1197.33 1110.08 1193.98L1044.26 1194.02L1044.25 1180.9L1096.87 1180.86C1096.89 1176.53 1096.85 1172.19 1096.77 1167.86Z" fill="#575657"/>
<path d="M1123.25 1193.98L1136.43 1194.07L1136.43 1220.26L1123.6 1220.25C1123.33 1211.5 1123.21 1202.74 1123.25 1193.98Z" fill="#929292"/>
<path d="M1110.22 1207.09L1123.13 1207.11C1123.13 1210.82 1123.29 1216.7 1123.07 1220.25L1110.16 1220.22C1110.49 1216.01 1110.3 1211.35 1110.22 1207.09Z" fill="white"/>
<path d="M1175.92 1110.38C1176.06 1112.63 1175.75 1113.18 1176.87 1114.94C1180.35 1116.88 1183.92 1114.84 1189.33 1115.77C1185.35 1116.2 1179.96 1116.01 1175.86 1115.97C1175.93 1128.36 1176.35 1142.5 1175.98 1154.75C1158.53 1154.77 1140.65 1155 1123.24 1154.72L1123.29 1115.58L1175.63 1115.61C1175.66 1113.84 1175.8 1112.15 1175.92 1110.38Z" fill="#211F20"/>
<path d="M1031.05 1167.83L1096.8 1167.86C1096.88 1172.19 1096.92 1176.53 1096.9 1180.86L1044.28 1180.9L1044.29 1194.02L978.403 1194L978.398 1180.88H1031.05V1167.83Z" fill="#929292"/>
<path d="M1097.04 1115.6C1101.32 1115.59 1105.82 1115.51 1110.08 1115.57L1123.3 1115.59L1123.26 1154.73L1110.14 1154.74L1096.75 1154.83C1097.25 1142.4 1096.86 1128.3 1097.04 1115.6Z" fill="#463C2A"/>
<path d="M1110.09 1115.55L1123.32 1115.56L1123.27 1154.7L1110.16 1154.72L1110.09 1115.55Z" fill="#575657"/>
<path d="M925.63 1063.27L1004.65 1063.28L1004.65 1076.33L991.551 1076.32C985.158 1076 976.13 1076.27 969.532 1076.28L925.625 1076.29L925.63 1063.27Z" fill="#C6C18A"/>
<path d="M1110.01 1037.06C1110 1033.23 1109.82 1027.67 1110.26 1024C1110.8 1029.74 1110.27 1036.64 1110.2 1042.45C1110.12 1049.42 1110.16 1056.35 1110.21 1063.32L1096.95 1063.34L1096.87 1102.47L1083.77 1102.46L1083.7 1063.25L1096.95 1063.3L1096.92 1037.06L1110.01 1037.06Z" fill="#66563A"/>
<path d="M1004.67 1076.36L1017.83 1076.35C1035.2 1076.26 1053.37 1076.66 1070.63 1076.28L1070.63 1089.43L1004.68 1089.47L1004.67 1076.36Z" fill="#A8996D"/>
<path d="M1017.85 1063.27L1070.62 1063.29L1070.62 1076.27C1053.36 1076.66 1035.19 1076.26 1017.82 1076.34L1017.85 1063.27Z" fill="#C6C18A"/>
<path d="M1083.83 1115.55L1097.08 1115.58C1096.89 1128.28 1097.29 1142.38 1096.79 1154.81L1083.84 1154.73C1084.06 1141.84 1083.75 1128.53 1083.83 1115.55Z" fill="#211F20"/>
<path d="M899.32 1024.01L1017.83 1024L1017.82 1050.17L899.32 1050.15V1024.01Z" fill="#FEFEFE"/>
<path d="M1031.06 1023.97L1083.76 1023.98L1083.72 1050.13L1031.05 1050.17L1031.06 1023.97Z" fill="#66563A"/>
<path d="M846.642 1115.52L859.766 1115.52C859.743 1119.11 859.275 1139.66 860.184 1141.73C868.38 1141.71 877.971 1141.46 886.072 1141.68L886.067 1142.06C886.199 1159.36 886.222 1176.67 886.14 1193.98C886.14 1198.22 886.054 1202.89 886.163 1207.1C886.063 1224.52 886.063 1241.95 886.172 1259.37C882.789 1259.36 861.755 1259.16 859.834 1259.71L859.766 1272.46C857.227 1272.44 848.654 1272.22 846.597 1272.75L846.651 1285.55L820.273 1285.54L820.264 1272.48L807.108 1272.49L807.09 1259.41L793.948 1259.39L793.953 1246.28L793.898 1207.02L807.145 1207.12L807.054 1193.97C811.399 1194.05 815.981 1193.99 820.345 1194L820.273 1180.75L820.413 1179.92C819.937 1172.86 820.3 1162.05 820.318 1154.71C824.686 1154.81 829.055 1154.81 833.428 1154.72C837.547 1154.62 842.487 1154.79 846.665 1154.82L846.642 1115.52Z" fill="#807A4B"/>
<path d="M860.188 1141.74C868.385 1141.72 877.976 1141.47 886.077 1141.69L886.072 1142.07C886.204 1159.37 886.227 1176.68 886.145 1193.99C886.145 1198.23 886.059 1202.9 886.168 1207.11C886.068 1224.53 886.068 1241.96 886.177 1259.38C882.794 1259.37 861.76 1259.17 859.839 1259.72L859.739 1259.48C859.943 1255.82 859.762 1250.11 859.743 1246.3L872.921 1246.27L872.976 1233.31L859.807 1233.21C859.802 1223.66 859.407 1143.17 860.188 1141.74Z" fill="#A8996D"/>
<path d="M872.942 1194.01L886.156 1193.98C886.156 1198.23 886.07 1202.9 886.179 1207.11C886.079 1224.53 886.079 1241.95 886.188 1259.38C882.805 1259.37 861.771 1259.16 859.85 1259.71L859.75 1259.47C859.954 1255.81 859.773 1250.1 859.755 1246.29L872.933 1246.27L872.987 1233.3L872.942 1194.01Z" fill="#463C2A"/>
<path d="M872.93 1142.02C877.325 1142.07 881.721 1142.07 886.117 1142.05C886.249 1159.36 886.271 1176.66 886.189 1193.97L872.975 1194L872.93 1142.02Z" fill="#C6C18A"/>
<path d="M820.281 1272.5C825.531 1272.5 842.582 1272.11 846.501 1272.53L846.615 1272.76L846.669 1285.56L820.29 1285.55L820.281 1272.5Z" fill="#66563A"/>
<path d="M820.306 1154.72C824.674 1154.81 829.043 1154.82 833.416 1154.72L833.361 1167.78L820.724 1167.9C820.76 1171.13 820.978 1176.97 820.401 1179.93C819.924 1172.87 820.288 1162.05 820.306 1154.72Z" fill="#66563A"/>
<path d="M846.616 1259.38L859.766 1259.46L859.866 1259.7L859.798 1272.45C857.26 1272.44 848.686 1272.21 846.629 1272.74L846.516 1272.5C846.761 1269.25 846.602 1262.85 846.616 1259.38Z" fill="#66563A"/>
<path d="M886.199 1207.1H899.313L912.5 1207.09L912.491 1220.1H925.678C928.212 1220.09 936.827 1219.97 938.825 1220.33L938.838 1259.4L938.816 1272.43L938.838 1311.67L925.669 1311.67L912.478 1311.64V1285.55L899.291 1285.54L899.286 1272.49L899.327 1259.37H886.208C886.099 1241.95 886.099 1224.52 886.199 1207.1Z" fill="#66563A"/>
<path d="M925.687 1220.52C928.965 1220.72 935.636 1220.7 938.81 1220.33L938.824 1259.4L925.664 1259.37L925.691 1233.31L925.687 1220.52Z" fill="white"/>
<path d="M912.438 1285.57L925.647 1285.53L925.629 1311.69L912.438 1311.66V1285.57Z" fill="white"/>
<path d="M912.438 1233.3L925.688 1233.29L925.661 1259.35L912.56 1259.3L912.438 1233.3Z" fill="#807A4B"/>
<path d="M899.291 1207.1L912.478 1207.09L912.469 1220.1C908.859 1220.33 903.101 1220.19 899.345 1220.2C899.286 1215.84 899.268 1211.47 899.291 1207.1Z" fill="#A8996D"/>
<path d="M925.666 1259.38L938.826 1259.41L938.803 1272.44L925.625 1272.53L925.666 1259.38Z" fill="#A8996D"/>
<path d="M899.234 1272.48L912.412 1272.49L912.426 1285.54L899.239 1285.53L899.234 1272.48Z" fill="white"/>
<path d="M912.524 1220.53C916.91 1220.42 921.297 1220.42 925.684 1220.53L925.688 1233.32L912.438 1233.33L912.524 1220.53Z" fill="#A8996D"/>
<path d="M938.833 1259.41L952.011 1259.42L952.025 1324.75L925.678 1324.72L925.664 1311.68L938.833 1311.67L938.81 1272.43L938.833 1259.41Z" fill="white"/>
<path d="M886.2 1259.39H899.319L899.278 1272.51L872.981 1272.5L872.967 1285.54L846.679 1285.57L846.625 1272.76C848.682 1272.24 857.256 1272.46 859.794 1272.47L859.862 1259.73C861.783 1259.18 882.817 1259.38 886.2 1259.39Z" fill="white"/>
<path d="M820.304 1285.53L846.683 1285.54L846.674 1298.6L833.473 1298.61V1324.73L820.304 1324.75L820.313 1311.7L820.281 1298.49L820.304 1285.53Z" fill="white"/>
<path d="M886.157 1193.98L899.308 1193.99L912.482 1194V1207.1L899.295 1207.11H886.18C886.071 1202.9 886.157 1198.23 886.157 1193.98Z" fill="white"/>
<path d="M886.157 1193.98L899.308 1193.99L899.295 1207.11H886.18C886.071 1202.9 886.157 1198.23 886.157 1193.98Z" fill="#A8996D"/>
<path d="M912.447 1207.09H925.625V1220.1H912.438L912.447 1207.09Z" fill="white"/>
<path d="M1136.43 1220.22L1136.45 1233.18H1123.36C1123.76 1229.88 1123.6 1223.73 1123.6 1220.21L1136.43 1220.22Z" fill="white"/>
<path d="M649.111 683.887L662.246 683.915L675.511 683.941L728.127 683.9L741.423 683.943H754.406L767.593 683.911L780.884 683.867L796.169 683.931L807.163 683.937L859.725 683.944L873.031 683.906L886.136 683.907L886.172 696.977L886.127 880.101L886.172 893.232L886.136 1010.91L886.145 1050.17L886.168 1063.26L872.963 1063.31L859.825 1063.27C859.725 1067.63 859.721 1071.98 859.812 1076.34C859.812 1080.61 859.739 1085.15 859.848 1089.4L859.78 1115.51L846.656 1115.52L846.679 1154.82C842.501 1154.78 837.561 1154.62 833.442 1154.72C829.069 1154.81 824.701 1154.81 820.332 1154.71C820.314 1162.04 819.951 1172.86 820.428 1179.92L820.287 1180.75L820.359 1194C815.995 1193.99 811.414 1194.05 807.068 1193.96L807.159 1207.12L793.913 1207.02L793.967 1246.28L793.962 1259.39L741.287 1259.4L741.273 1246.29L741.323 1207.05C736.896 1207.03 732.468 1207.07 728.045 1207.17C728.031 1202.79 728.118 1198.31 728.159 1193.91L714.931 1193.96C714.922 1189.61 714.881 1185.26 714.803 1180.9C715.339 1175.81 714.935 1160.84 714.926 1154.75C710.671 1154.76 705.994 1154.87 701.775 1154.73L688.56 1154.79C688.599 1141.86 688.833 1128.38 688.586 1115.49L675.447 1115.52L675.401 1089.39L675.451 1076.37L675.394 1063.29L662.258 1063.31L649.071 1063.26L649.094 1050.16L649.104 1010.9L635.891 1010.89L635.969 893.217C640.09 893.224 645.031 893.346 649.085 893.201L649.098 880.091L649.095 696.995L649.111 683.887Z" fill="#807A4B"/>
<path d="M741.16 1063.36C758.679 1063.35 776.548 1063.18 794.04 1063.38L820.328 1063.35L820.31 1154.74C820.292 1162.07 819.928 1172.89 820.405 1179.95L820.265 1180.78L820.337 1194.02C815.973 1194.02 811.391 1194.08 807.046 1193.99L807.136 1207.15L793.89 1207.05L793.945 1246.31L793.94 1259.42L741.264 1259.42L741.251 1246.31L741.301 1207.07C736.873 1207.06 732.446 1207.1 728.023 1207.2C728.009 1202.81 728.096 1198.34 728.136 1193.94L714.908 1193.99C714.899 1189.64 714.858 1185.28 714.781 1180.93C715.317 1175.84 714.913 1160.87 714.904 1154.78L714.868 1063.27C723.632 1063.35 732.396 1063.39 741.16 1063.36Z" fill="white"/>
<path d="M820.265 1180.75L820.337 1193.99C815.973 1193.99 811.391 1194.05 807.046 1193.96L807.136 1207.12L793.89 1207.02L793.945 1246.28L793.94 1259.39L741.264 1259.39L741.251 1246.28L741.301 1207.05C736.873 1207.03 732.446 1207.07 728.023 1207.17C728.009 1202.78 728.096 1198.31 728.136 1193.91L714.908 1193.96C714.899 1189.61 714.858 1185.26 714.781 1180.9L728.096 1180.89V1193.97H807.077L807.114 1180.89C811.46 1180.9 815.937 1180.99 820.265 1180.75Z" fill="#66563A"/>
<path d="M754.541 1233.29C763.269 1233.15 771.992 1233.15 780.72 1233.3L780.843 1246.34L793.975 1246.3L793.971 1259.41L741.295 1259.41L741.281 1246.3L754.428 1246.32L754.541 1233.29Z" fill="white"/>
<path d="M754.543 1233.29C763.271 1233.15 771.994 1233.15 780.722 1233.3L780.845 1246.34L754.43 1246.32L754.543 1233.29Z" fill="#A8996D"/>
<path d="M754.506 1207.12C763.284 1207.19 772.062 1207.18 780.839 1207.09L780.735 1233.3C772.007 1233.15 763.284 1233.15 754.556 1233.28C754.524 1224.58 754.429 1215.81 754.506 1207.12Z" fill="#807A4B"/>
<path d="M741.289 1128.64L754.54 1128.63C762.192 1128.63 771.051 1128.81 778.612 1128.59C779.379 1128.8 780.147 1128.81 780.315 1129.33C781.314 1132.42 780.724 1138.47 780.733 1141.73L794.001 1141.64L793.956 1167.77L794.02 1180.84L807.143 1180.9L807.107 1193.98H728.125V1180.89L741.271 1180.87L741.317 1167.75L741.262 1141.65L741.289 1128.64Z" fill="white"/>
<path d="M741.277 1128.63L754.528 1128.62L754.519 1141.73L741.25 1141.65L741.277 1128.63Z" fill="#211F20"/>
<path d="M741.327 1167.76L754.541 1167.83L754.505 1180.89L741.281 1180.88L741.327 1167.76Z" fill="#211F20"/>
<path d="M793.958 1167.76L794.021 1180.83L780.771 1180.88L780.734 1167.81L793.958 1167.76Z" fill="#211F20"/>
<path d="M754.525 1141.74L767.626 1141.76L767.612 1154.76L754.516 1154.78L754.525 1141.74Z" fill="#929292"/>
<path d="M741.66 1102.51L793.941 1102.53C793.918 1106.87 793.945 1111.21 794.014 1115.55L807.123 1115.62L807.128 1180.9L794.004 1180.85L793.941 1167.78L793.986 1141.65L780.717 1141.73C780.708 1138.47 781.299 1132.42 780.3 1129.33C780.132 1128.81 779.364 1128.8 778.597 1128.6C771.036 1128.82 762.177 1128.63 754.525 1128.63L741.274 1128.64L741.247 1141.66L741.301 1167.75L741.256 1180.88L728.11 1180.9C727.806 1159.39 728.092 1137.18 728.069 1115.62L741.279 1115.53C741.283 1112.61 741.074 1104.88 741.66 1102.51Z" fill="#807A4B"/>
<path d="M741.664 1102.51L793.945 1102.53C793.922 1106.87 793.949 1111.21 794.017 1115.55L741.283 1115.53C741.287 1112.61 741.078 1104.88 741.664 1102.51Z" fill="#C6C18A"/>
<path d="M778.57 1128.59L793.914 1128.65L793.96 1141.64L780.691 1141.73C780.682 1138.47 781.272 1132.42 780.273 1129.33C780.105 1128.81 779.338 1128.8 778.57 1128.59Z" fill="#211F20"/>
<path d="M741.312 1089.4L793.979 1089.39C793.961 1091.98 793.743 1100.32 794.247 1102.46L793.97 1102.52L741.689 1102.49L741.331 1102.41L741.312 1089.4Z" fill="#66563A"/>
<path d="M741.318 1102.41L741.677 1102.49C741.091 1104.86 741.3 1112.6 741.296 1115.51L728.086 1115.6L728.104 1102.44L741.318 1102.41Z" fill="#A8996D"/>
<path d="M794.222 1102.48L807.123 1102.47L807.128 1115.62L794.018 1115.56C793.95 1111.22 793.923 1106.88 793.945 1102.54L794.222 1102.48Z" fill="#A8996D"/>
<path d="M873.009 697.009L886.178 696.984L886.132 880.108L886.178 893.24L886.141 1010.91L886.15 1050.18L886.173 1063.26L872.968 1063.31L859.831 1063.28L859.812 697.011L873.009 697.009Z" fill="#A8996D"/>
<path d="M873.013 697.009L886.182 696.984L886.136 880.108L886.182 893.24L886.146 1010.91L886.155 1050.18L872.977 1050.17L873.013 697.009Z" fill="#C6C18A"/>
<path d="M872.981 1050.16L886.159 1050.16L886.182 1063.25L872.977 1063.3L872.981 1050.16Z" fill="#463C2A"/>
<path d="M649.095 697.016L662.223 697.026L662.287 1050.18H649.094L649.104 1010.92L635.891 1010.91L635.969 893.238C640.09 893.245 645.031 893.367 649.085 893.221L649.098 880.112L649.095 697.016Z" fill="#C6C18A"/>
<path d="M635.969 893.235C640.09 893.242 645.031 893.364 649.085 893.219L649.104 1010.92L635.891 1010.91L635.969 893.235Z" fill="#807A4B"/>
<path d="M662.245 697.001L675.542 696.945L675.417 1063.28L662.28 1063.3L649.094 1063.26L649.117 1050.16H662.31L662.245 697.001Z" fill="#A8996D"/>
<path d="M649.117 1050.16H662.31L662.28 1063.3L649.094 1063.26L649.117 1050.16Z" fill="#463C2A"/>
<path d="M688.619 1037.15C692.984 1037.13 697.349 1037.09 701.714 1037.02L701.814 1037.37C704.116 1037.02 712.799 1036.79 714.897 1037.39L714.933 1050.19L714.888 1063.25L714.924 1154.75C710.669 1154.76 705.992 1154.88 701.773 1154.74L688.557 1154.79C688.597 1141.86 688.831 1128.38 688.584 1115.49L675.445 1115.52L675.398 1089.4L675.449 1076.37C678.999 1076.38 683.918 1076.25 687.359 1076.47L688.207 1076.18C688.926 1074.73 688.59 1041.44 688.619 1037.15Z" fill="#66563A"/>
<path d="M701.822 1037.37C704.124 1037.02 712.807 1036.79 714.905 1037.39L714.941 1050.19L714.896 1063.25L714.932 1154.75C710.677 1154.76 706 1154.88 701.781 1154.74L701.799 1050.17L701.822 1037.37Z" fill="#A8996D"/>
<path d="M701.804 1037.37C704.106 1037.02 712.789 1036.79 714.887 1037.39L714.923 1050.19L701.781 1050.17L701.804 1037.37Z" fill="#C6C18A"/>
<path d="M675.449 1076.38C678.999 1076.39 683.918 1076.26 687.359 1076.48L688.304 1076.98C688.898 1080.23 688.659 1086.24 688.693 1089.69C688.775 1098.2 688.304 1107.01 688.584 1115.51L675.445 1115.53L675.398 1089.41L675.449 1076.38Z" fill="#463C2A"/>
<path d="M833.527 1037.04L846.623 1037.12C846.782 1050.15 846.764 1063.19 846.573 1076.22L852.236 1076.36L859.81 1076.33C859.81 1080.6 859.738 1085.15 859.847 1089.39L859.778 1115.5L846.655 1115.51L846.678 1154.81C842.5 1154.78 837.559 1154.61 833.441 1154.71C829.068 1154.8 824.699 1154.8 820.331 1154.7L820.349 1063.31L820.312 1050.11L820.358 1037.42C822.469 1036.9 831.424 1036.89 833.427 1037.35L833.527 1037.04Z" fill="#66563A"/>
<path d="M820.358 1037.42C822.469 1036.9 831.424 1036.89 833.427 1037.35L833.45 1050.14L833.441 1154.71C829.068 1154.8 824.699 1154.8 820.331 1154.7L820.349 1063.31L820.312 1050.11L820.358 1037.42Z" fill="#A8996D"/>
<path d="M820.358 1037.42C822.469 1036.9 831.424 1036.89 833.427 1037.35L833.45 1050.14C829.068 1050.2 824.69 1050.19 820.312 1050.11L820.358 1037.42Z" fill="#C6C18A"/>
<path d="M859.827 1076.35C859.827 1080.62 859.755 1085.17 859.863 1089.41L859.795 1115.53L846.672 1115.53C847.031 1102.95 846.554 1089.44 846.713 1076.61C848.561 1076.6 850.405 1076.48 852.253 1076.38L859.827 1076.35Z" fill="#463C2A"/>
<path d="M649.11 683.887L662.245 683.915L675.511 683.941L728.126 683.9L741.422 683.943H754.405L767.592 683.911L780.884 683.867L796.169 683.931L807.162 683.937L859.725 683.944L873.03 683.906L886.135 683.907L886.172 696.977L873.003 697.002L859.806 697.003L807.117 697.007L793.962 696.987L780.738 696.981L728.022 696.956L675.518 696.949L662.222 697.005L649.094 696.995L649.11 683.887Z" fill="#463C2A"/>
<path d="M807.081 1037.02L820.264 1037.05L820.359 1037.44L820.314 1050.13L820.35 1063.34L794.062 1063.37L793.898 1050.09L807.131 1050.15L807.081 1037.02Z" fill="#66563A"/>
<path d="M714.995 1037.08L728.1 1037.05C728.119 1041.38 728.187 1045.82 728.119 1050.14L741.337 1050.1L741.183 1063.35C732.419 1063.37 723.655 1063.34 714.891 1063.26L714.936 1050.2L714.9 1037.4L714.995 1037.08Z" fill="#66563A"/>
<path d="M820.336 1024.01C824.691 1024.01 829.113 1023.97 833.459 1024.03C833.455 1027.08 833.278 1034.34 833.546 1037.06L833.446 1037.37C831.443 1036.91 822.488 1036.92 820.377 1037.44L820.281 1037.05C820.399 1032.7 820.417 1028.36 820.336 1024.01Z" fill="#A8996D"/>
<path d="M701.817 1024.03L714.922 1024C714.908 1027.38 714.7 1033.94 714.981 1037.06L714.886 1037.38C712.788 1036.78 704.105 1037.01 701.803 1037.37L701.703 1037.02C701.83 1032.69 701.867 1028.36 701.817 1024.03Z" fill="#A8996D"/>
<path d="M754.517 932.49C763.282 932.441 772.046 932.441 780.814 932.489L780.796 945.492L754.477 945.506L754.517 932.49Z" fill="#807A4B"/>
<path d="M754.484 913L780.831 912.992L780.854 919.416L774.138 919.386V925.829C769.905 926.014 765.483 925.901 761.232 925.862L761.25 919.349L754.43 919.454L754.484 913Z" fill="#807A4B"/>
<path d="M899.325 893.197L912.417 893.226L978.461 893.204L1189.47 893.188L1189.47 906.252L1202.38 906.248L1202.4 971.673L1189.34 971.652C1189.34 980.05 1189.12 989.543 1189.46 997.859C1189.48 1001.14 1189.76 1021.97 1189.28 1024L1162.83 1024L1162.82 1037.11L1149.59 1037.04L1149.56 1024.01L1136.45 1024L1136.43 1010.91L1123.26 1010.91H978.271L912.503 1010.93L899.384 1010.89L886.156 1010.91L886.193 893.24C890.488 893.299 895.007 893.217 899.325 893.197Z" fill="#807A4B"/>
<path d="M899.325 893.188L912.417 893.216L978.461 893.194C977.671 931.857 978.561 972.044 978.271 1010.9L912.503 1010.92L899.384 1010.88L886.156 1010.9L886.193 893.23C890.488 893.289 895.007 893.207 899.325 893.188Z" fill="#66563A"/>
<path d="M899.325 893.188L899.384 1010.88L886.156 1010.9L886.193 893.23C890.488 893.289 895.007 893.207 899.325 893.188Z" fill="#807A4B"/>
<path d="M899.32 893.188L912.412 893.216L912.498 1010.92L899.379 1010.88L899.32 893.188Z" fill="#A8996D"/>
<path d="M1176.02 997.844L1189.02 997.875C1189 1003.68 1188.64 1019.26 1189.26 1024L1162.8 1024L1162.79 1037.11L1149.57 1037.04L1149.54 1024.01L1136.42 1024L1136.41 1010.91L1176.11 1010.94L1176.02 997.844Z" fill="white"/>
<path d="M1123.2 997.844L1136.37 997.871L1136.39 1010.92L1123.22 1010.93L1123.2 997.844Z" fill="white"/>
<path d="M622.865 893.208L635.958 893.215L635.88 1010.89L622.785 1010.92L556.941 1010.9L411.976 1010.91L398.848 1010.9L398.813 1023.99L385.683 1024L385.662 1037.03L372.419 1037.07L372.421 1023.99L345.975 1024.01C345.498 1021.98 345.777 1001.15 345.796 997.84C346.087 989.299 345.933 980.234 345.924 971.652L332.891 971.679L332.901 906.25L345.789 906.227L345.782 893.188L556.839 893.2L622.865 893.208Z" fill="#807A4B"/>
<path d="M622.877 893.227L635.971 893.234L635.892 1010.91L622.798 1010.94L556.954 1010.91L556.852 893.219L622.877 893.227Z" fill="#66563A"/>
<path d="M622.892 893.219L635.986 893.226L635.907 1010.9L622.812 1010.93L622.892 893.219Z" fill="#A8996D"/>
<path d="M346.2 997.896L359.196 997.883L359.141 1010.97C372.246 1010.77 385.71 1010.93 398.842 1010.93L398.807 1024.02L385.677 1024.03L385.656 1037.06L372.413 1037.1L372.415 1024.02L345.969 1024.04C346.536 1020.81 346.215 1002.09 346.2 997.896Z" fill="white"/>
<path d="M398.845 997.848L411.994 997.844L411.972 1010.92L398.844 1010.91L398.845 997.848Z" fill="white"/>
<path d="M741.295 540.065L754.373 540.047L767.624 540.06L767.629 592.387L780.834 592.361C780.829 609.426 780.498 627.73 780.852 644.696C780.775 657.752 780.789 670.807 780.888 683.863L767.597 683.907L754.41 683.939H741.427L728.131 683.896L675.516 683.937C675.395 675.241 675.383 666.544 675.481 657.848L675.407 631.577L675.438 618.551C675.342 609.909 675.45 601.037 675.46 592.379L688.591 592.367V579.296L701.775 579.319L701.779 566.208L714.926 566.179C719.29 566.189 723.744 566.152 728.104 566.211L728.117 553.119L741.036 553.18C741.509 550.978 741.309 542.708 741.295 540.065Z" fill="#A8996D"/>
<path d="M714.926 566.167C719.29 566.176 723.744 566.14 728.104 566.198C728.167 574.916 728.158 583.635 728.067 592.354L714.885 592.326C714.912 601.031 714.853 609.883 715.003 618.575L701.834 618.593L701.689 631.653L714.912 631.613L714.926 657.779L728.095 657.773L728.131 683.883L675.516 683.924C675.395 675.228 675.383 666.531 675.481 657.835L675.407 631.565L675.438 618.538C675.342 609.897 675.45 601.025 675.46 592.366L688.591 592.354V579.283L701.775 579.307L701.779 566.196L714.926 566.167Z" fill="#66563A"/>
<path d="M675.46 592.403L688.591 592.391L688.635 618.654L675.438 618.575C675.342 609.933 675.45 601.061 675.46 592.403Z" fill="#C6C18A"/>
<path d="M688.578 579.312L701.762 579.336L701.784 592.433L688.578 592.383V579.312Z" fill="#C6C18A"/>
<path d="M701.747 566.232L714.893 566.203V579.315L701.742 579.343L701.747 566.232Z" fill="#C6C18A"/>
<path d="M675.43 618.547L688.627 618.626C688.606 622.926 688.617 627.265 688.548 631.561L675.398 631.573L675.43 618.547Z" fill="#A8996D"/>
<path d="M780.858 644.703C780.781 657.759 780.794 670.814 780.894 683.87L767.603 683.914C768.007 671.677 767.607 657.162 767.594 644.74L780.858 644.703Z" fill="#66563A"/>
<path d="M741.398 644.783L754.477 644.773C754.572 657.837 754.558 670.9 754.436 683.964H741.453L741.398 644.783Z" fill="#66563A"/>
<path d="M728.139 553.125L741.058 553.186L741.321 553.267L741.28 566.16L728.125 566.216L728.139 553.125Z" fill="#807A4B"/>
<path d="M780.835 540.047L793.958 540.067V552.879C796.683 553.366 803.962 553.107 807.145 553.122L807.15 566.206V592.369L820.351 592.347L820.278 618.577L820.283 631.579L820.31 657.766L807.118 657.763L807.168 683.934L796.174 683.928L780.889 683.864C780.789 670.808 780.776 657.753 780.853 644.697C780.499 627.731 780.83 609.427 780.835 592.362L767.63 592.388L767.625 540.061L780.835 540.047Z" fill="#C6C18A"/>
<path d="M780.823 644.703L793.96 644.727C793.947 649.326 793.379 682.211 794.605 683.613L796.144 683.934L780.859 683.87C780.759 670.814 780.746 657.759 780.823 644.703Z" fill="#A8996D"/>
<path d="M780.846 540.047L793.97 540.067V552.879L793.888 553.15L780.773 553.158L780.846 540.047Z" fill="#A8996D"/>
<path d="M793.933 552.891C796.658 553.378 803.937 553.119 807.12 553.134L807.125 566.218L793.961 566.193C793.988 561.849 793.951 557.505 793.852 553.162L793.933 552.891Z" fill="#807A4B"/>
<path d="M820.283 566.203L833.439 566.224L833.448 579.337L846.63 579.319L846.626 592.393L859.763 592.396C859.768 600.652 859.999 610.418 859.736 618.57L859.795 631.573L859.722 657.885C859.795 666.577 859.786 675.27 859.69 683.962L807.128 683.954L807.078 657.783L820.27 657.786L820.243 631.599L820.238 618.597L820.311 592.367L807.11 592.39V566.227L820.283 566.203Z" fill="#66563A"/>
<path d="M846.684 592.391L859.821 592.393C859.826 600.65 860.057 610.415 859.794 618.567L846.625 618.592C846.739 609.89 846.679 601.1 846.684 592.391Z" fill="#C6C18A"/>
<path d="M833.501 579.33L846.683 579.312L846.679 592.386L833.469 592.424L833.501 579.33Z" fill="#C6C18A"/>
<path d="M820.312 566.203L833.468 566.224L833.477 579.337L820.317 579.32L820.312 566.203Z" fill="#C6C18A"/>
<path d="M820.281 618.583L833.45 618.578L833.541 631.691L820.286 631.585L820.281 618.583Z" fill="#A8996D"/>
<path d="M846.625 618.572L859.794 618.547L859.853 631.551L846.639 631.646L846.625 618.572Z" fill="#A8996D"/>
<path d="M859.795 618.55L872.987 618.547L873.009 657.756L859.781 657.866L859.854 631.554L859.795 618.55Z" fill="#C6C18A"/>
<path d="M662.284 618.547L675.436 618.55L675.405 631.576L675.479 657.847L662.234 657.743C662.729 645.891 662.279 630.671 662.284 618.547Z" fill="#C6C18A"/>
<path d="M662.235 657.75L675.479 657.854C675.382 666.55 675.394 675.247 675.514 683.943L662.248 683.917C662.514 675.567 662.223 666.225 662.235 657.75Z" fill="#A8996D"/>
<path d="M859.782 657.86L873.01 657.75C873.01 665.538 872.696 676.334 873.055 683.898L859.75 683.936C859.845 675.244 859.854 666.552 859.782 657.86Z" fill="#A8996D"/>
<path d="M873.017 657.758L886.2 657.75L886.168 683.908L873.063 683.906C872.704 676.343 873.017 665.546 873.017 657.758Z" fill="#C6C18A"/>
<path d="M649.099 657.775L662.215 657.75C662.203 666.225 662.495 675.567 662.229 683.917L649.094 683.889L649.099 657.775Z" fill="#C6C18A"/>
<path d="M886.156 880.099L899.348 880.078L899.334 893.188C895.016 893.208 890.497 893.29 886.202 893.231L886.156 880.099Z" fill="#A8996D"/>
<path d="M649.108 880.099L649.095 893.209C645.041 893.354 640.1 893.232 635.979 893.225L635.93 880.078L649.108 880.099Z" fill="#A8996D"/>
<path d="M807.125 553.132L820.303 553.125V566.193L807.13 566.216L807.125 553.132Z" fill="#C6C18A"/>
<path d="M714.891 553.131L728.091 553.125L728.078 566.216C723.718 566.158 719.264 566.195 714.9 566.185L714.891 553.131Z" fill="#C6C18A"/>
<circle cx="411.141" cy="937.75" r="42.625" fill="#FFDD00"/>
<circle cx="411.117" cy="937.766" r="23.25" fill="#0059FF"/>
<rect width="15.5" height="15.5" transform="matrix(-1 0 0 1 445.992 821.484)" fill="white"/>
<rect width="15.5" height="54.25" transform="matrix(-1 0 0 1 376.266 837)" fill="white"/>
<rect width="15.5" height="15.5" transform="matrix(-1 0 0 1 391.75 821.484)" fill="white"/>
<rect width="11.625" height="15.5" transform="matrix(-1 0 0 1 430.523 806.016)" fill="white"/>
<rect width="11.625" height="15.5" transform="matrix(-1 0 0 1 403.375 806.016)" fill="white"/>
<rect width="15.5" height="15.5" transform="matrix(1.19249e-08 -1 -1 -1.19249e-08 418.891 806.016)" fill="white"/>
<rect width="15.5" height="54.25" transform="matrix(-1 0 0 1 461.508 837)" fill="white"/>
<rect x="376.266" y="837" width="69.75" height="58.125" fill="#807A4B"/>
<rect x="391.75" y="821.484" width="38.75" height="15.5" fill="#FFAA00"/>
<rect x="403.375" y="806.016" width="15.5" height="15.5" fill="#FF0000"/>
<rect width="15.5" height="15.5" transform="matrix(-1 0 0 1 1159.03 821.484)" fill="white"/>
<rect width="15.5" height="54.25" transform="matrix(-1 0 0 1 1089.27 837)" fill="white"/>
<rect width="15.5" height="15.5" transform="matrix(-1 0 0 1 1104.77 821.484)" fill="white"/>
<rect width="11.625" height="15.5" transform="matrix(-1 0 0 1 1143.52 806.016)" fill="white"/>
<rect width="11.625" height="15.5" transform="matrix(-1 0 0 1 1116.38 806.016)" fill="white"/>
<rect width="15.5" height="15.5" transform="matrix(1.19249e-08 -1 -1 -1.19249e-08 1131.89 806.016)" fill="white"/>
<rect width="15.5" height="54.25" transform="matrix(-1 0 0 1 1174.5 837)" fill="white"/>
<rect x="1089.27" y="837" width="69.75" height="58.125" fill="#807A4B"/>
<rect x="1104.77" y="821.484" width="38.75" height="15.5" fill="#FFAA00"/>
<rect x="1116.38" y="806.016" width="15.5" height="15.5" fill="#FF0000"/>
<circle cx="1124.12" cy="937.75" r="42.625" fill="#FFDD00"/>
<circle cx="1124.14" cy="937.766" r="23.25" fill="#0059FF"/>
<path d="M832.856 899.539L828.081 899.544V942.471L827.974 942.578L766.978 1003.77L766.725 1003.51L705.703 942.502V899.544H701.598V899.539H700.984V944.262L766.973 1010.46L832.8 944.43L832.856 899.539Z" fill="#45371E"/>
<path d="M828.081 759.17H832.8V742.562H700.984V759.17H705.703V747.297H828.081V759.17Z" fill="#45371E"/>
<path d="M719.45 866.046C719.217 866.229 719.05 866.487 718.953 866.832C719.09 866.817 719.222 866.812 719.344 866.812C720.1 866.812 720.572 867.061 721.008 867.33C721.308 867.051 721.551 866.589 721.267 865.726C720.45 865.635 719.841 865.747 719.45 866.046Z" fill="#45371E"/>
<path d="M798.012 954.183C797.957 955.01 798.089 955.614 798.408 955.989C798.601 956.213 798.86 956.365 799.205 956.451C799.058 955.472 799.322 954.904 799.616 954.371C799.322 954.076 798.855 953.848 798.012 954.178V954.183Z" fill="#45371E"/>
<path d="M719.156 863.43C719.344 863.415 719.522 863.405 719.684 863.405C720.729 863.405 721.394 863.725 721.774 864.009C722.043 863.583 722.074 863.05 721.861 862.385C720.531 862.253 719.567 862.634 719.156 863.43Z" fill="#45371E"/>
<path d="M729.652 952.714C729.464 953.51 729.495 954.124 729.748 954.545C729.901 954.804 730.139 954.997 730.469 955.139C730.489 954.15 730.844 953.627 731.215 953.155C730.971 952.82 730.545 952.516 729.652 952.708V952.714Z" fill="#45371E"/>
<path d="M727.27 954.497C727.326 953.122 727.793 952.355 728.158 951.955C727.798 951.635 727.301 951.544 726.651 951.676C726.499 952.366 726.326 953.807 727.27 954.497Z" fill="#45371E"/>
<path d="M724.013 953.501C724.14 952.476 724.48 951.679 725.023 951.121C724.754 950.883 724.297 950.69 723.465 950.827C722.973 952.405 723.44 953.12 724.013 953.501Z" fill="#45371E"/>
<path d="M794.854 953.791C794.717 954.861 794.895 956.023 795.717 956.536C795.646 955.166 796.042 954.364 796.382 953.938C795.996 953.654 795.494 953.603 794.859 953.791H794.854Z" fill="#45371E"/>
<path d="M716.911 906.458C718.18 906.001 719.063 906.148 719.575 906.341C719.727 905.9 719.631 905.407 719.281 904.859L719.048 904.925V904.885C717.88 905.128 717.114 905.681 716.906 906.453L716.911 906.458Z" fill="#45371E"/>
<path d="M719.179 904.884C719.179 904.884 719.169 904.864 719.164 904.859C719.089 904.874 719.028 904.9 718.953 904.915V904.955L719.179 904.889V904.884Z" fill="#45371E"/>
<path d="M719.616 908.312C718.799 908.353 718.221 908.556 717.886 908.906C717.683 909.124 717.561 909.403 717.516 909.764C717.83 909.683 718.099 909.647 718.348 909.647C718.855 909.647 719.246 909.794 719.616 909.946C719.956 909.495 719.956 908.962 719.616 908.312Z" fill="#45371E"/>
<path d="M791.587 953.618C791.424 954.933 791.759 955.765 792.606 956.14C792.551 955.11 792.738 954.268 793.17 953.629C792.759 953.385 792.236 953.385 791.592 953.624L791.587 953.618Z" fill="#45371E"/>
<path d="M716.958 903.06C717.938 902.741 718.8 902.7 719.526 902.939C719.653 902.452 719.526 901.964 719.12 901.406C717.486 901.64 717.039 902.37 716.953 903.06H716.958Z" fill="#45371E"/>
<path d="M747.825 854.686C745.765 855.361 744.537 856.787 744.451 858.598C744.44 859.106 744.369 859.659 743.963 859.816C743.537 859.984 743.152 859.593 742.776 859.212C742.69 859.121 742.563 858.994 742.456 858.908C742.451 858.959 742.441 859.03 742.436 859.116C742.396 860.618 742.406 861.825 742.969 862.48C743.654 863.272 744.76 863.601 745.709 863.302C746.495 863.053 746.998 862.409 747.089 861.531L747.12 861.08C747.267 858.933 747.465 855.99 750.778 855.691C752.96 855.493 754.112 857.041 754.726 857.868C754.776 857.939 754.837 858.015 754.888 858.086C755.289 857.365 755.309 856.706 754.944 856.092L754.878 856.016C753.589 854.427 750.428 853.834 747.825 854.686Z" fill="#45371E"/>
<path d="M744.208 886.346L744.062 886.273L744.135 886.346H744.208Z" fill="#45371E"/>
<path d="M778.701 915.693C778.945 915.257 779.107 914.973 779.112 914.521C779.112 913.796 777.062 912.344 775.225 912.004C765.387 910.269 756.644 912.045 753.417 914.597C749.733 917.611 748.14 921.874 748.672 927.267C748.886 927.039 749.088 926.75 749.281 926.395L750.342 924.466L750.611 926.653C751.732 935.777 750.535 937.233 747.632 940.749C747.044 941.465 746.374 942.272 745.643 943.256C742.553 946.097 737.53 946.94 734.338 946.316C733.541 946.158 733.003 945.681 732.527 945.255C732.105 944.88 731.74 944.555 731.212 944.393C729.173 943.718 727.417 943.728 726.133 944.408C725.017 944.996 724.22 946.092 723.774 947.66C723.662 948.041 723.672 948.411 723.692 948.914C724.185 948.873 724.651 948.914 725.073 949.035C725.626 949.193 726.103 949.477 726.483 949.888C727.092 949.791 727.625 949.807 728.107 949.944C728.696 950.096 729.213 950.41 729.629 950.882C730.187 950.801 730.72 950.837 731.202 950.989C731.842 951.197 732.359 951.583 732.745 952.136L738.478 952.176C739.686 951.897 740.711 951.76 741.543 951.76C742.715 951.76 743.522 952.039 744.019 952.618C744.375 953.034 744.537 953.567 744.496 954.206C745.217 953.698 745.394 952.902 745.141 951.562L744.963 950.639L745.897 950.72C751.128 951.167 755.238 950.553 758.415 948.858C757.146 948.721 756.197 948.432 755.533 947.985L753.396 946.549L755.969 946.686C760.85 946.945 764.306 946.138 766.477 944.23C764.382 944.185 762.52 943.895 760.931 943.368L756.649 941.947L761.16 941.982C761.221 941.982 761.287 941.982 761.348 941.982C768.015 941.982 772.196 939.851 774.094 935.472C771.054 935.706 768.695 935.132 767.086 933.777C765.6 932.524 764.803 930.647 764.717 928.196C764.773 925.172 765.549 923 767.091 921.529C769.091 919.626 772.399 918.814 777.783 918.9C777.844 917.21 778.315 916.378 778.696 915.698L778.701 915.693Z" fill="#45371E"/>
<path d="M810.937 949.532L809.73 949.004L810.836 948.284C814.865 945.661 816.803 942.454 816.732 938.506C815.271 940.094 813.789 940.749 812.307 940.444L810.577 940.089L812.069 939.145C815.448 937.009 816.813 933.016 816.133 927.267C814.626 929.713 812.911 931.088 811.019 931.362L809.395 931.595L810.334 930.25C813.337 925.927 814.028 922.375 812.465 919.153C810.953 923.852 805.884 927.384 802.296 927.277C800.886 927.196 798.206 926.694 796.025 924.238C793.782 921.711 792.797 917.971 793.092 913.12L793.142 912.278L793.959 912.466C803.478 914.663 806.904 911.121 809.192 906.96C810.846 903.824 806.898 897.177 803.012 892.433C802.245 891.636 801.347 890.754 800.414 889.84C795.36 884.873 789.631 879.245 790.971 873.486C791.752 870.371 794.482 868.879 796.578 868.544C798.587 868.224 800.338 868.808 801.134 870.076C801.774 871.578 801.814 872.766 801.292 873.654C800.901 874.313 800.211 874.785 799.242 875.059C799.942 875.658 801.058 876.105 802.144 875.932C803.494 875.714 804.361 874.532 804.585 872.598L804.661 871.934L805.325 871.969C809.202 872.167 811.602 874.217 812.475 878.063C813.414 875.455 813.246 872.441 811.978 869.95C810.689 867.423 808.461 865.9 805.868 865.774L804.965 865.728L805.219 864.86C805.65 863.379 806.782 862.318 808.578 861.694C807.512 860.76 805.726 860.426 804.026 860.882C801.768 861.491 800.439 863.287 800.475 865.692L800.485 866.626L799.582 866.393C797.146 865.758 794.264 866.413 791.879 868.138C789.849 869.61 788.566 871.563 788.449 873.365C787.997 880.636 794.858 887.531 799.871 892.57L800.799 893.504C803.961 896.853 808.03 901.739 806.883 905.605C804.63 911.258 800.175 912.694 793.239 910.03L792.899 909.898L792.808 909.548C790.727 901.668 786.967 899.486 783.948 897.736C782.365 896.817 780.868 895.944 779.838 894.453C778.732 894.884 777.555 895.127 776.408 895.153C774.789 895.193 773.262 894.782 772.1 893.981C770.877 894.762 769.878 895.335 768.964 895.772C767.554 896.442 766.265 896.802 765.027 896.878L762.946 896.99L763.581 895.001C763.713 894.595 763.814 894.194 763.895 893.808C763.225 894.331 762.556 894.777 761.866 895.153C760.019 896.173 758.096 896.67 755.995 896.67H753.691L754.711 894.595C754.924 894.158 755.097 893.752 755.244 893.372C754.955 893.656 754.66 893.92 754.356 894.163C752.986 895.254 751.494 895.889 749.799 896.107L747.775 896.36L748.216 894.366C748.429 893.417 748.521 892.57 748.49 891.855C747.42 892.844 746.247 893.575 745.07 893.991C744.395 894.239 743.71 894.376 743.036 894.407C739.626 898.75 734.81 902.774 728.721 906.372L727.666 906.996L727.646 905.768C727.62 903.901 726.935 900.734 725.225 900.207C723.723 899.907 722.14 900.034 720.75 900.572C721.049 901.049 721.242 901.521 721.334 902.013C721.455 902.708 721.349 903.388 721.019 904.038L720.948 904.17C721.181 904.606 721.328 905.037 721.394 905.484C721.471 906.103 721.379 906.691 721.12 907.239C721.557 907.955 721.76 908.66 721.724 909.33C721.709 909.949 721.506 910.512 721.125 911.014C724.028 913.729 727.22 914.115 731.396 913.836L731.908 913.8L732.101 914.277C732.253 914.653 732.304 915.104 732.248 915.657C733.151 915.084 733.755 914.191 734.09 912.933L734.181 912.582L734.516 912.45C736.485 911.684 738.362 910.482 740.184 909.32C743.878 906.96 747.689 904.52 752.712 905.184C753.047 904.515 753.133 903.89 752.981 903.276C752.702 902.17 751.606 901.069 749.733 900.014L747.689 898.862L750.028 898.684C752.783 898.476 754.736 900.232 756.015 904.058C756.832 906.646 760.44 908.604 763.291 908.807C763.941 908.833 764.601 908.863 765.25 908.883C769.391 909.046 772.963 909.183 776.88 910.127C778.615 910.654 779.696 911.36 780.29 912.349C780.919 912.978 781.279 913.749 781.279 914.516C781.279 915.52 780.939 916.124 780.614 916.708C780.143 917.636 780.026 918.524 779.955 919.113C779.909 919.473 779.879 919.732 779.772 919.95C778.737 923.456 778.306 925.181 779.194 928.713C780.427 933.599 783.679 936.938 788.393 938.207C788.312 938.075 788.246 937.938 788.185 937.801L787.51 936.279L789.078 936.842C790.9 937.496 793.249 937.715 795.522 937.928C799.079 938.263 802.433 938.577 803.945 940.5C805.199 941.926 805.605 943.753 805.057 945.488C804.544 947.117 803.276 948.325 801.667 948.715L801.307 948.807L801.028 948.558C799.83 947.503 798.293 946.995 796.491 947.041C794.066 947.142 792.214 949.025 791.869 951.678C792.189 951.628 792.498 951.613 792.792 951.638C793.325 951.694 793.802 951.866 794.223 952.14C794.959 951.912 795.578 951.856 796.157 951.953C796.633 952.034 797.065 952.216 797.45 952.49C797.922 952.318 798.354 952.237 798.77 952.237C798.927 952.237 799.084 952.247 799.237 952.272C800.018 952.384 800.678 952.785 801.2 953.465L801.276 953.566C804.651 953.551 806.848 953.064 807.989 952.084C808.674 951.465 809.877 951.257 811.039 951.552C811.907 951.77 812.647 952.242 813.17 952.891C813.429 952.419 813.52 951.993 813.434 951.623C813.272 950.887 812.404 950.156 810.927 949.512L810.937 949.532Z" fill="#45371E"/>
<path d="M774.875 892.723C774.93 892.739 775.006 892.764 775.042 892.774C775.083 892.774 775.179 892.8 775.25 892.82L776.163 892.926L778.726 892.612C778.964 892.531 779.264 892.414 779.563 892.282L779.654 892.246C779.69 892.226 779.766 892.191 779.832 892.16C781.618 891.308 783.389 889.537 783.166 887.081C780.786 887.893 778.746 887.446 777.097 885.736L776.102 884.701L777.528 884.534C780.674 884.163 782.618 882.59 783.45 879.729C781.704 879.693 780.349 878.901 779.416 877.374L778.761 876.304L780.015 876.288C783.379 876.248 785.226 874.857 785.951 871.782C784.434 871.214 783.389 870.225 782.846 868.824L782.46 867.83L783.526 867.855C787.144 867.936 789.184 866.845 789.726 864.526C786.885 865.085 785.089 864.445 784.383 862.619L784.013 861.655H785.043C787.194 861.634 788.732 861.122 789.605 860.122C790.254 859.376 790.579 858.316 790.574 856.951C788.412 858.341 786.606 858.397 785.185 857.118L784.196 856.22L785.49 855.895C787.194 855.469 788.275 854.673 788.61 853.592C788.915 852.602 788.595 851.359 787.727 850.136C786.53 851.562 785.013 852.125 783.211 851.821L781.78 851.577L782.846 850.593C784.049 849.482 784.632 848.431 784.576 847.462C784.526 846.625 783.993 845.757 782.978 844.885C782.303 845.859 781.359 846.285 780.649 846.473C779.441 846.792 778.147 846.625 777.691 846.265C771.247 841.287 768.816 841.576 765.995 841.911C765.396 841.982 764.777 842.058 764.092 842.089C763.625 842.139 762.671 842.505 761.753 842.86C760.626 843.291 759.373 843.773 758.297 843.961C758.323 843.992 758.348 844.027 758.379 844.057C758.825 844.514 759.86 844.727 761.225 844.656C762.666 844.184 764.254 844.205 766.076 844.717C767.446 844.717 768.659 845.767 769.795 847.914L770.83 849.878L771.81 851.146C773.007 852.694 774.768 853.292 777.209 852.963L778.284 852.815L777.985 853.861C777.396 855.926 776.108 857.357 774.063 858.199L775.407 858.306L774.438 859.381C772.982 860.99 771.389 861.995 769.689 862.38L770.805 862.776L769.496 863.552C768.334 864.242 767.142 864.592 765.954 864.592C764.32 864.592 762.991 863.938 762.133 863.446L758.815 861.543L762.621 862.126C763.549 862.269 764.569 862.426 765.503 862.456C765.142 861.995 764.894 861.487 764.711 861.051L764.249 859.975L765.421 860.061C767.547 860.224 769.09 860.092 770.196 859.65C768.907 859.128 768.156 858.448 767.913 857.59L767.639 856.641L768.623 856.682C771.089 856.788 772.997 856.266 774.418 855.089C772.946 854.881 770.577 854.221 770.536 851.593L770.516 850.146L768.74 848.817C768.522 848.655 768.268 848.447 768.009 848.228C767.38 847.706 766.959 847.381 766.741 847.259C766.583 847.422 766.416 847.63 766.243 847.848L766.188 847.919C765.685 848.558 765.061 849.35 763.757 849.35H763.711C761.692 849.187 761.098 848.036 760.824 846.752C759.241 846.762 758.176 846.468 757.496 845.844C755.349 845.615 753.441 846.158 752.391 847.3L752.214 847.493L751.95 847.523C751.61 847.564 751.168 847.564 750.747 847.559C750.514 847.559 750.204 847.559 749.94 847.559C750.108 847.878 750.316 848.137 750.569 848.33L750.869 848.558L750.849 848.934C750.783 850.015 750.92 851.354 751.934 851.572L752.391 851.669L752.452 851.983C752.452 851.983 752.452 851.973 752.462 851.973L752.619 851.74L752.888 851.674C753.447 851.537 754.015 851.659 754.522 851.765C754.842 851.831 755.085 851.887 755.304 851.882C757.186 851.882 759.043 854.53 759.064 856.509C759.064 858.661 756.699 860.711 754.867 860.726C753.244 860.762 751.838 859.762 750.544 858.585C750.509 858.93 750.488 859.523 750.534 860.518C751.3 861.32 751.848 862.132 752.198 862.979C752.64 862.502 752.711 862.177 752.665 861.842L752.574 861.173L753.238 861.046C754.39 860.827 756.415 860.883 757.095 863.735C757.775 866.516 754.842 867.875 752.487 868.966C751.62 869.367 750.808 869.743 750.245 870.138C749.854 870.443 749.565 870.945 749.26 871.473C748.494 872.813 747.54 874.472 744.064 874.091C743.948 874.923 744.054 875.583 744.389 876.065C744.861 876.74 745.825 877.161 747.261 877.318L747.997 877.4L747.885 878.135C747.545 880.373 746.236 881.773 744.1 882.174L742.476 882.184C742.862 882.773 743.593 883.225 744.881 883.691L745.46 883.899L745.064 885.706C745.039 885.782 745.013 885.848 744.988 885.909L744.978 886.041L744.902 886.157L744.861 886.32L744.572 886.858L744.547 886.842L743.648 887.959C743.547 888.05 743.471 888.106 743.379 888.152L742.979 888.36V888.466L742.659 888.588L742.248 888.629C741.507 888.826 740.609 888.826 739.609 888.613C739.782 889.831 740.244 890.795 740.949 891.409C741.649 892.018 742.573 892.282 743.613 892.165L743.831 892.135C743.958 892.114 744.024 892.104 744.1 892.104L744.42 892.013C744.389 892.023 744.496 891.983 744.552 891.967L744.973 891.825C744.973 891.825 745.074 891.769 745.135 891.744L745.384 891.643C745.384 891.643 745.455 891.592 745.5 891.572L745.988 891.292C746.028 891.262 746.084 891.227 746.125 891.201L746.414 891.003C746.454 890.973 746.505 890.942 746.556 890.912L747.023 890.526C747.053 890.496 747.099 890.455 747.15 890.42C747.175 890.384 747.261 890.303 747.342 890.237L747.352 890.227C747.352 890.227 747.418 890.166 747.444 890.141L747.535 890.044C747.571 890.009 747.621 889.968 747.647 889.938L747.931 889.638C747.977 889.577 748.043 889.511 748.139 889.415L748.256 889.283C748.342 889.172 748.433 889.06 748.535 888.953C748.591 888.867 748.646 888.791 748.707 888.715L749.499 887.583L750.062 888.522C750.869 889.872 751.117 891.617 750.808 893.723C752.98 893.109 754.827 891.394 756.308 888.608L756.968 887.37L757.582 888.629C758.379 890.278 758.328 892.114 757.414 894.383C760.165 894.078 762.646 892.627 765.173 889.857L766.183 888.75L766.401 890.232C766.609 891.648 766.548 893.043 766.213 894.479C767.948 894.093 769.846 892.997 772.119 891.49L772.606 891.166L773.175 891.739C773.231 891.78 773.286 891.835 773.327 891.876C773.393 891.922 773.464 891.988 773.52 892.038L773.763 892.201V892.211L774.702 892.612L774.717 892.997L774.783 892.647L774.88 892.668L774.875 892.723Z" fill="#45371E"/>
<path d="M741.388 884.415C740.597 883.74 740.135 882.923 739.937 881.847L739.577 879.949L740.338 880.036C735.421 877.727 731.58 874.515 728.647 870.263L728.449 869.979L728.551 869.649C729.545 866.452 729.738 864.057 729.114 862.525C728.059 860.571 726.501 859.633 724.385 859.699C724.451 860.11 724.451 860.505 724.385 860.876C724.284 861.475 724.04 861.982 723.649 862.418C723.746 862.88 723.771 863.311 723.72 863.727C723.644 864.346 723.406 864.905 723.015 865.382C723.198 865.996 723.238 866.574 723.142 867.102C722.99 867.898 722.563 868.543 721.873 869.025L721.812 869.07C721.934 872.156 723 875.22 724.979 878.189L725.192 878.513L725.035 878.869C724.842 879.305 724.441 879.64 723.751 879.914C724.395 880.35 725.192 880.502 726.161 880.371L726.547 880.32L726.8 880.619C729.241 883.522 732.656 886.434 736.959 889.286L736.928 887.418L736.954 887.408L736.908 885.79L738.831 886.404C739.217 886.531 739.577 886.622 739.922 886.673C740.759 886.794 741.419 886.713 741.931 886.429C742.226 886.262 742.459 885.977 742.657 885.627L741.556 885.11L742.824 885.343C742.824 885.343 742.83 885.333 742.835 885.328C742.251 885.049 741.784 884.755 741.388 884.41V884.415Z" fill="#45371E"/>
<path d="M742.64 885.611C742.696 885.515 742.762 885.439 742.808 885.327L741.539 885.094L742.64 885.611Z" fill="#45371E"/>
<path d="M722.562 859.481C721.162 859.227 720.254 859.506 719.797 860.343C720.903 860.354 721.786 860.597 722.441 861.079C722.664 860.78 722.811 860.303 722.562 859.481Z" fill="#45371E"/>
<path d="M837.371 800.688H696.422L697.244 802.788H836.544L837.371 800.688Z" fill="#45371E"/>
<path d="M716.885 765.75H711.328V772.925H702.322V765.75H696.766V777.39H731.447V765.75H725.886V772.925H716.885V765.75Z" fill="#45371E"/>
<path d="M742.126 791.031H736.57V798.739H742.126V791.031Z" fill="#45371E"/>
<path d="M716.836 788.173H727.106V779.359H700.984V788.173H711.32V782.5H716.836V788.173Z" fill="#45371E"/>
<path d="M711.32 790H700.984V798.727H713.132V794.247H711.32V790Z" fill="#45371E"/>
<path d="M715.094 798.727H727.241V790H716.895V794.247H715.094V798.727Z" fill="#45371E"/>
<path d="M822.525 765.75H816.969V772.925H807.962V765.75H802.406V777.39H837.088V765.75H831.532V772.925H822.525V765.75Z" fill="#45371E"/>
<path d="M797.322 791.031H791.766V798.739H797.322V791.031Z" fill="#45371E"/>
<path d="M816.906 782.5H822.421V788.173H832.762V779.359H806.641V788.173H816.906V782.5Z" fill="#45371E"/>
<path d="M832.765 790H822.424V794.247H820.617V798.727H832.765V790Z" fill="#45371E"/>
<path d="M816.992 790H806.641V798.727H818.788V794.247H816.992V790Z" fill="#45371E"/>
<path d="M765.97 790H752.609V798.727H765.97V790Z" fill="#45371E"/>
<path d="M781.173 790H767.812V798.727H781.173V790Z" fill="#45371E"/>
<path d="M765.923 767.391H752.562V776.113H764.142V771.861H765.923V767.391Z" fill="#45371E"/>
<path d="M781.184 778.031H778.5V788.144H781.184V778.031Z" fill="#45371E"/>
<path d="M754.949 778.031H752.609V788.144H754.949V778.031Z" fill="#45371E"/>
<path d="M764.108 778.031H756.781V788.144H776.565V778.036H769.624V783.694H764.108V778.031Z" fill="#45371E"/>
<path d="M769.644 776.118H781.173V767.391H767.812V771.861H769.644V776.118Z" fill="#45371E"/>
<path d="M769.833 753.852H763.958V761.021H754.641V753.852H748.766V765.492H785.025V753.852H779.144V761.021H769.833V753.852Z" fill="#45371E"/>
<path d="M729.558 804.688H709.875V812.263H729.558V804.688Z" fill="#45371E"/>
<path d="M729.563 823.648H709.875V831.239H729.563V823.648Z" fill="#45371E"/>
<path d="M709.875 842.656V850.257H718.831C720.561 847.609 722.433 845.061 724.423 842.656H709.875Z" fill="#45371E"/>
<path d="M709.875 861.594V867.657C710.687 865.607 711.565 863.578 712.498 861.594H709.875Z" fill="#45371E"/>
<path d="M751.185 804.688H731.508V812.263H751.185V804.688Z" fill="#45371E"/>
<path d="M731.508 823.648V831.224H735.932C739.281 828.489 742.945 825.947 746.832 823.648H731.508Z" fill="#45371E"/>
<path d="M753.062 812.268H767.194H780.711V804.688H753.062V812.268Z" fill="#45371E"/>
<path d="M721.377 814.141H700.984V821.716H721.377V814.141Z" fill="#45371E"/>
<path d="M721.382 833.156H700.984V840.737H721.382V833.156Z" fill="#45371E"/>
<path d="M708.656 871.062H700.984V878.638H706.206C706.952 876.071 707.774 873.529 708.656 871.062Z" fill="#45371E"/>
<path d="M743.635 814.141H723.258V821.721H743.635V814.141Z" fill="#45371E"/>
<path d="M723.258 833.156V840.737H726.043C728.362 838.098 730.915 835.551 733.645 833.156H723.258Z" fill="#45371E"/>
<path d="M765.968 814.141H745.57V821.721H750.173C755.013 819.118 760.326 816.805 765.968 814.851V814.146V814.141Z" fill="#45371E"/>
<path d="M708.037 804.688H700.984V812.268H708.037V804.688Z" fill="#45371E"/>
<path d="M708.037 823.648H700.984V831.224H708.037V823.648Z" fill="#45371E"/>
<path d="M708.037 861.594H700.984V869.169H708.037V861.594Z" fill="#45371E"/>
<path d="M700.984 880.602V888.182H703.77C704.364 885.529 704.983 883.042 705.653 880.602H700.984Z" fill="#45371E"/>
<path d="M700.984 890.109V897.685H701.893C702.38 894.981 702.862 892.489 703.369 890.109H700.984Z" fill="#45371E"/>
<path d="M708.037 842.656H700.984V850.232H708.037V842.656Z" fill="#45371E"/>
<path d="M700.989 859.669H713.462C714.801 856.97 716.171 854.489 717.648 852.094H700.984V859.669H700.989Z" fill="#45371E"/>
<path d="M707.648 888.427C711.276 873.809 715.665 862.529 721.455 852.929C731.842 835.732 746.399 824.62 765.955 818.967V816.852C745.151 824.184 729.934 835.945 719.435 852.797C713.747 861.925 709.465 872.591 706.349 885.403C706.09 886.468 705.842 887.534 705.608 888.589L705.344 889.767C704.807 892.248 704.299 894.826 703.797 897.632H705.527L705.654 897.043C706.248 894.313 706.801 891.878 707.354 889.604L707.648 888.427Z" fill="#45371E"/>
<path d="M823.852 804.688H804.164V812.263H823.852V804.688Z" fill="#45371E"/>
<path d="M823.948 823.648H804.266V831.239H823.948V823.648Z" fill="#45371E"/>
<path d="M823.876 850.257V842.656H809.328C811.332 845.082 813.205 847.629 814.92 850.257H823.876Z" fill="#45371E"/>
<path d="M823.897 867.667V861.594H821.273C822.207 863.583 823.085 865.612 823.897 867.667Z" fill="#45371E"/>
<path d="M802.308 804.688H782.641V812.263H802.308V804.688Z" fill="#45371E"/>
<path d="M797.915 831.224H802.334V823.648H787.016C790.902 825.947 794.566 828.494 797.915 831.224Z" fill="#45371E"/>
<path d="M832.851 814.141H812.453V821.721H824.266H832.851V814.141Z" fill="#45371E"/>
<path d="M832.841 833.156H812.453V840.737H832.841V833.156Z" fill="#45371E"/>
<path d="M827.67 878.638H832.891V871.062H825.219C826.102 873.529 826.924 876.076 827.67 878.638Z" fill="#45371E"/>
<path d="M810.518 814.141H790.141V821.716H810.518V814.141Z" fill="#45371E"/>
<path d="M807.851 840.737H810.647V833.156H800.25C802.98 835.546 805.532 838.093 807.851 840.737Z" fill="#45371E"/>
<path d="M788.21 821.721V814.141H767.812V814.846C773.465 816.805 778.783 819.118 783.618 821.721H788.21Z" fill="#45371E"/>
<path d="M832.85 804.688H825.797V812.268H832.85V804.688Z" fill="#45371E"/>
<path d="M832.85 823.648H825.797V831.224H832.85V823.648Z" fill="#45371E"/>
<path d="M832.85 861.594H825.797V869.169H832.85V861.594Z" fill="#45371E"/>
<path d="M832.892 888.182V880.602H828.219C828.889 883.032 829.518 885.579 830.101 888.182H832.892Z" fill="#45371E"/>
<path d="M831.95 897.685H832.859V890.109H830.469C830.976 892.489 831.463 894.975 831.945 897.685H831.95Z" fill="#45371E"/>
<path d="M832.85 842.656H825.797V850.232H832.85V842.656Z" fill="#45371E"/>
<path d="M832.825 859.669V852.094H816.172C817.648 854.484 819.018 856.965 820.358 859.669H832.825Z" fill="#45371E"/>
<path d="M826.414 889.609C826.921 891.71 827.433 893.938 827.976 896.419L828.24 897.632H829.976C829.473 894.851 828.961 892.258 828.423 889.767L828.159 888.589C827.88 887.346 827.591 886.098 827.281 884.84C824.176 872.276 819.939 861.793 814.332 852.797C803.834 835.94 788.616 824.179 767.812 816.852V818.967C787.368 824.625 801.926 835.737 812.313 852.929C818.102 862.529 822.491 873.809 826.119 888.427L826.414 889.604V889.609Z" fill="#45371E"/>
<rect width="69.75" height="15.5" transform="matrix(1 0 0 -1 376.234 852.516)" fill="#66563A"/>
<rect width="69.75" height="15.5" transform="matrix(1 0 0 -1 1089.26 852.516)" fill="#66563A"/>
<rect width="69.75" height="15.5" transform="matrix(1 0 0 -1 376.234 867.984)" fill="#A8996D"/>
<rect width="69.75" height="15.5" transform="matrix(1 0 0 -1 1089.26 867.984)" fill="#A8996D"/>
</g>
<defs>
<clipPath id="clip0_3980_148055">
<rect width="1046.25" height="837" fill="white" transform="translate(244.5 527)"/>
</clipPath>
</defs>
</svg>
