<svg width="1024" height="1024" viewBox="0 0 1024 1024" fill="none" xmlns="http://www.w3.org/2000/svg">
<mask id="path-1-outside-1_3978_5565" maskUnits="userSpaceOnUse" x="287.797" y="152.117" width="449" height="720" fill="black">
<rect fill="white" x="287.797" y="152.117" width="449" height="720"/>
<path d="M567.361 257.521H622.795V309.904H695.004V540.588H632.146V704.276H567.361V830.528H457.019V704.276H391.392V540.588H328.797V309.904H400.965V257.521H457.019V193.117H567.361V257.521Z"/>
</mask>
<path d="M567.361 257.521H622.795V309.904H695.004V540.588H632.146V704.276H567.361V830.528H457.019V704.276H391.392V540.588H328.797V309.904H400.965V257.521H457.019V193.117H567.361V257.521Z" fill="#F6921E"/>
<path d="M567.361 257.521H526.518V298.364H567.361V257.521ZM622.795 257.521H663.639V216.677H622.795V257.521ZM622.795 309.904H581.951V350.748H622.795V309.904ZM695.004 309.904H735.848V269.061H695.004V309.904ZM695.004 540.588V581.432H735.848V540.588H695.004ZM632.146 540.588V499.744H591.303V540.588H632.146ZM632.146 704.276V745.12H672.99V704.276H632.146ZM567.361 704.276V663.433H526.518V704.276H567.361ZM567.361 830.528V871.372H608.205V830.528H567.361ZM457.019 830.528H416.175V871.372H457.019V830.528ZM457.019 704.276H497.862V663.433H457.019V704.276ZM391.392 704.276H350.548V745.12H391.392V704.276ZM391.392 540.588H432.235V499.744H391.392V540.588ZM328.797 540.588H287.953V581.432H328.797V540.588ZM328.797 309.904V269.061H287.953V309.904H328.797ZM400.965 309.904V350.748H441.809V309.904H400.965ZM400.965 257.521V216.677H360.121V257.521H400.965ZM457.019 257.521V298.364H497.862V257.521H457.019ZM457.019 193.117V152.273H416.175V193.117H457.019ZM567.361 193.117H608.205V152.273H567.361V193.117ZM567.361 257.521V298.364H622.795V257.521V216.677H567.361V257.521ZM622.795 257.521H581.951V309.904H622.795H663.639V257.521H622.795ZM622.795 309.904V350.748H695.004V309.904V269.061H622.795V309.904ZM695.004 309.904H654.16V540.588H695.004H735.848V309.904H695.004ZM695.004 540.588V499.744H632.146V540.588V581.432H695.004V540.588ZM632.146 540.588H591.303V704.276H632.146H672.99V540.588H632.146ZM632.146 704.276V663.433H567.361V704.276V745.12H632.146V704.276ZM567.361 704.276H526.518V830.528H567.361H608.205V704.276H567.361ZM567.361 830.528V789.685H457.019V830.528V871.372H567.361V830.528ZM457.019 830.528H497.862V704.276H457.019H416.175V830.528H457.019ZM457.019 704.276V663.433H391.392V704.276V745.12H457.019V704.276ZM391.392 704.276H432.235V540.588H391.392H350.548V704.276H391.392ZM391.392 540.588V499.744H328.797V540.588V581.432H391.392V540.588ZM328.797 540.588H369.641V309.904H328.797H287.953V540.588H328.797ZM328.797 309.904V350.748H400.965V309.904V269.061H328.797V309.904ZM400.965 309.904H441.809V257.521H400.965H360.121V309.904H400.965ZM400.965 257.521V298.364H457.019V257.521V216.677H400.965V257.521ZM457.019 257.521H497.862V193.117H457.019H416.175V257.521H457.019ZM457.019 193.117V233.961H567.361V193.117V152.273H457.019V193.117ZM567.361 193.117H526.518V257.521H567.361H608.205V193.117H567.361Z" fill="white" mask="url(#path-1-outside-1_3978_5565)"/>
<path d="M457 257H401V287H457V257Z" fill="#FABB52"/>
<path d="M401 310H329V340H401V310Z" fill="#FABB52"/>
<path d="M359 370L359 340L329 340L329 370L359 370Z" fill="#FABB52"/>
<path d="M623 310H695V340H623V310Z" fill="#FABB52"/>
<path d="M665 370L665 340L695 340L695 370L665 370Z" fill="#FABB52"/>
<path d="M623 257H567V287H623V257Z" fill="#FABB52"/>
<path d="M573.102 287.883H451.008V409.978H573.102V287.883Z" fill="#F6921E"/>
<path d="M595.117 362.445H428.992V528.647H595.117V362.445Z" fill="#FFF89F"/>
<path d="M567.376 193L457 193.001V223.001L567.376 223V193Z" fill="#FABB52"/>
<path d="M595 362L429 362.001V392L595 391.999V362Z" fill="#FABB52"/>
<path d="M459 421L458.999 362L429 362L429.001 421L459 421Z" fill="#FABB52"/>
<path d="M595 421L594.999 362L565 362L565.001 421L595 421Z" fill="#FABB52"/>
</svg>
